<?xml version="1.0" standalone="no"?>
<!DOCTYPE svg PUBLIC "-//W3C//DTD SVG 1.1//EN" "http://www.w3.org/Graphics/SVG/1.1/DTD/svg11.dtd" >
<svg xmlns="http://www.w3.org/2000/svg">
<metadata></metadata>
<defs>
<font id="bauerbodni_btitalic" horiz-adv-x="985" >
<font-face units-per-em="2048" ascent="1556" descent="-492" />
<missing-glyph horiz-adv-x="494" />
<glyph horiz-adv-x="2048" />
<glyph horiz-adv-x="2048" />
<glyph unicode="&#xd;" horiz-adv-x="494" />
<glyph unicode=" "  horiz-adv-x="494" />
<glyph unicode="&#x09;" horiz-adv-x="494" />
<glyph unicode="&#xa0;" horiz-adv-x="494" />
<glyph unicode="!" horiz-adv-x="674" d="M43 61q0 39 27 66t65 27t64 -27t26 -66q0 -38 -25.5 -64t-64.5 -26q-38 0 -65 26.5t-27 63.5zM223 332q75 255 107 415.5t32 272.5q0 17 -1 42.5t-4 66.5q65 40 113 101t87 154q0 -7 -1 -23q-3 -68 -3 -97q0 -49 11.5 -83.5t35.5 -60.5q-98 -124 -184.5 -324t-161.5 -472 z" />
<glyph unicode="&#x22;" horiz-adv-x="678" d="M90 1362q0 48 22 74t62 26q41 0 63.5 -26t22.5 -74q0 -9 -3 -34q-1 -5 -1 -7l-66 -457h-32l-64 457q-2 17 -3 26t-1 15zM418 1360q0 49 22.5 75.5t63.5 26.5q40 0 62 -26t22 -74q0 -14 -0.5 -23t-1.5 -18l-68 -457h-31l-65 457q0 2 -1 6q-3 22 -3 33z" />
<glyph unicode="#" horiz-adv-x="1575" d="M104 467l43 115h322l100 286h-348l43 117h348l166 471h133l-168 -471h287l168 471h131l-166 -471h307l-40 -117h-310l-100 -286h332l-43 -115h-330l-166 -469h-133l166 469h-287l-166 -469h-131l166 469h-324zM600 582h289l102 286h-291z" />
<glyph unicode="$" d="M-127 61q6 15 20 47q103 236 162 416l29 -6q-20 -58 -29.5 -111t-9.5 -100q0 -82 41.5 -142.5t130.5 -109.5l178 621q-81 57 -121.5 134t-40.5 175q0 167 100 277.5t265 123.5l59 207l33 -10l-57 -194h16q22 0 49 -3.5t68 -11.5l61 217l33 -8l-63 -221q23 -12 62 -34 q96 -52 116 -52q21 0 38.5 16t31.5 47l26 -6l-127 -397l-26 8q7 32 10.5 61t3.5 54q0 95 -37 161t-111 103l-151 -528q131 -63 189.5 -143.5t58.5 -198.5q0 -204 -136.5 -340t-345.5 -138l-80 -274l-30 12l75 262q-32 3 -63.5 11t-62.5 20l-88 -307l-33 8l90 316 q-47 21 -117.5 68.5t-99.5 47.5q-19 0 -38.5 -19.5t-47.5 -68.5zM246 37q30 -12 62.5 -18.5t66.5 -6.5l168 584q-20 10 -60 30.5t-59 30.5zM311 1096q0 -65 37.5 -118t108.5 -89l131 463q-125 -15 -201 -86t-76 -170zM408 6q156 12 244.5 103t88.5 239q0 79 -42 135.5 t-128 94.5zM485 870q47 -23 75.5 -36t43.5 -19l152 522q-24 9 -51 14t-54 5q-4 0 -13 -1t-13 -1z" />
<glyph unicode="%" horiz-adv-x="1421" d="M68 842q0 77 23.5 156.5t68.5 152.5q59 96 135.5 149.5t155.5 53.5q90 0 138 -64t48 -184q0 -80 -23 -159t-67 -148q-60 -96 -137.5 -149.5t-155.5 -53.5q-89 0 -137.5 64.5t-48.5 181.5zM184 727q0 -50 20 -77t56 -27q44 0 82 38t76 119q47 103 77.5 231.5t30.5 215.5 q0 50 -20.5 77t-59.5 27q-48 0 -94.5 -56.5t-85.5 -164.5q-38 -106 -60 -208.5t-22 -174.5zM250 -25l854 1385h65l-852 -1385h-67zM784 229q0 78 24 157.5t69 152.5q59 96 135.5 149t154.5 53q91 0 139 -64t48 -183q0 -81 -23.5 -161t-66.5 -149q-60 -94 -137.5 -147 t-155.5 -53q-89 0 -138 64t-49 181zM897 109q0 -50 20 -77.5t56 -27.5q43 0 81 38.5t76 121.5q48 103 78.5 230.5t30.5 213.5q0 51 -21 78t-59 27q-49 0 -95 -56t-85 -163q-39 -106 -60.5 -209.5t-21.5 -175.5z" />
<glyph unicode="&#x26;" horiz-adv-x="1366" d="M-6 301q0 135 101 240.5t315 191.5q-25 77 -34 126.5t-9 94.5q0 129 87 225.5t201 96.5q91 0 146 -52.5t55 -140.5q0 -95 -77.5 -177t-211.5 -128q40 -104 88.5 -203.5t106.5 -197.5q102 125 174 176t141 51q58 0 96.5 -34.5t38.5 -86.5q0 -46 -29.5 -77t-74.5 -31 q-43 0 -73.5 30t-30.5 72q0 7 3 22t3 23q0 13 -3 19t-10 6q-31 0 -88 -49.5t-133 -143.5q68 -132 134.5 -201t125.5 -69q44 0 81.5 34.5t74.5 110.5l14 -6q-32 -116 -102 -183t-158 -67q-75 0 -143 56t-141 180q-108 -124 -195.5 -180t-171.5 -56q-124 0 -212.5 96.5 t-88.5 231.5zM154 428q0 -58 24.5 -122.5t71.5 -129.5q37 -50 80 -75t90 -25q52 0 107 37t120 116q-59 103 -115 220t-112 253q-140 -57 -203 -122t-63 -152zM506 1038q0 -55 13.5 -116t39.5 -123q134 50 203 121t69 157q0 77 -41.5 121.5t-113.5 44.5q-75 0 -122.5 -57 t-47.5 -148z" />
<glyph unicode="'" horiz-adv-x="348" d="M90 1360q0 50 21.5 76t62.5 26t63.5 -26t22.5 -74q0 -9 -3 -34q-1 -5 -1 -7l-66 -457h-32l-66 457q-1 8 -1.5 16t-0.5 23z" />
<glyph unicode="(" horiz-adv-x="664" d="M125 313q0 321 176 592.5t518 478.5l17 -22q-287 -192 -439.5 -515t-152.5 -736q0 -144 34.5 -275t106.5 -262l-12 -14q-117 156 -182.5 356t-65.5 397z" />
<glyph unicode=")" horiz-adv-x="664" d="M-262 -418q285 191 437.5 514t152.5 738q0 143 -34.5 274t-107.5 262l13 14q116 -156 181.5 -356t65.5 -397q0 -321 -175.5 -592.5t-518.5 -478.5z" />
<glyph unicode="*" horiz-adv-x="1024" d="M178 1075q0 6 7.5 11t19.5 6q3 0 10 -1t10 -1l49 -5v52q1 12 6 18t13 6q4 0 23 -19q111 -110 257 -163q-14 161 -91 290q-11 18 -11 21q0 6 4 9.5t12 3.5h9l45 -7l12 56q4 19 8.5 25.5t13.5 6.5q11 0 16 -5.5t11 -26.5l14 -54l41 11q1 0 3.5 1t3.5 1q6 0 11 -5.5t5 -13.5 q0 -2 -9 -20q-67 -129 -69 -291q136 69 246 171q25 23 31 24q5 -1 7 -3.5t3 -9.5l6 -53l59 6h7q9 0 13.5 -4t4.5 -12q0 -9 -1 -12t-4 -5l-54 -41l16 -36q2 -5 6 -12.5t4 -8.5q0 -5 -3.5 -8.5t-8.5 -3.5q-2 0 -9 2q-42 12 -87 12q-108 0 -152.5 -7.5t-77.5 -25.5 q83 -86 174.5 -145.5t91.5 -63.5q0 -7 -15 -13l-1 -1l-33 -12l25 -53q2 -5 4 -11.5t2 -9.5q0 -10 -5 -16t-13 -6q-3 0 -5.5 0.5t-7.5 3.5l-63 41l-35 -35q-3 -3 -5.5 -4.5t-4.5 -1.5q-11 0 -21 49q-1 5 -2 8q-16 86 -42 147.5t-64 104.5q-52 -103 -75.5 -210.5t-25.5 -107.5 q-1 1 -2 1.5t-4 3.5l-37 36l-49 -45q-6 -6 -12 -9t-12 -3q-9 1 -13.5 6t-5.5 15q0 1 1 5t3 10l19 58l-44 17q-7 3 -10 6.5t-4 9.5q0 1 92 65.5t158 161.5q-25 8 -54 11.5t-64 3.5q-63 0 -127 -7.5t-66 -7.5q-16 1 -24 5t-9 12q0 2 2 4l31 39l-64 39q-8 5 -11 9.5t-3 10.5z " />
<glyph unicode="+" horiz-adv-x="1706" d="M254 553v117h541v551h118v-551h539v-117h-539v-553h-118v553h-541z" />
<glyph unicode="," horiz-adv-x="494" d="M-57 -326q127 52 206.5 126.5t79.5 136.5q0 36 -59 39q-26 2 -38 3q-54 10 -83 37t-29 68q0 44 31.5 74t77.5 30q68 0 113 -50.5t45 -129.5q0 -112 -87.5 -208t-244.5 -154z" />
<glyph unicode="-" horiz-adv-x="786" d="M72 344l37 131h448l-39 -131h-446z" />
<glyph unicode="." horiz-adv-x="494" d="M43 76q0 38 26.5 64t65.5 26t64.5 -26t25.5 -64q0 -39 -25.5 -64.5t-64.5 -25.5q-38 0 -65 26.5t-27 63.5z" />
<glyph unicode="/" horiz-adv-x="569" d="M-195 -190l803 1574h56l-805 -1574h-54z" />
<glyph unicode="0" d="M39 426q0 148 36.5 293t106.5 272q94 173 218 271t247 98q143 0 219 -116.5t76 -336.5q0 -145 -36.5 -289t-106.5 -274q-95 -175 -218 -273t-247 -98q-142 0 -218.5 117.5t-76.5 335.5zM172 197q0 -94 36.5 -144.5t104.5 -50.5q81 0 153.5 72.5t141.5 224.5 q35 77 70.5 183.5t66.5 232.5q32 126 49 237.5t17 188.5q0 94 -37 145t-104 51q-81 0 -154 -73.5t-143 -227.5q-36 -78 -71 -183t-64 -224q-32 -126 -49 -240t-17 -192z" />
<glyph unicode="1" d="M55 0l9 33q11 -1 23.5 -1.5t35.5 -0.5q78 0 111 25.5t63 125.5l305 1041q-81 -56 -181 -108t-233 -107l-10 26q120 49 271.5 134t394.5 241l-381 -1286q-4 -14 -6 -24.5t-2 -18.5q0 -43 125 -46q34 -1 53 -1l-6 -33h-572z" />
<glyph unicode="2" d="M-47 0q21 78 64.5 147t115.5 138q38 36 151.5 116.5t170.5 122.5q139 104 219 250t80 295q0 118 -71 190t-185 72q-110 0 -194.5 -65t-84.5 -144q0 -24 9 -42.5t38 -45.5q8 -7 23 -22q63 -61 63 -99q0 -31 -22 -52t-56 -21q-44 0 -76 57t-32 141q0 144 104 234t273 90 q175 0 285 -90.5t110 -231.5q0 -134 -76 -242t-272 -241q-51 -34 -153 -95q-273 -165 -369 -298h544q77 0 107 21t72 85l22 -10q-40 -70 -73.5 -134.5t-61.5 -125.5h-725z" />
<glyph unicode="3" d="M12 209q0 74 43.5 125t106.5 51q45 0 72.5 -25.5t27.5 -66.5q0 -44 -29 -71t-77 -27q-4 0 -17.5 1t-23.5 1q-28 0 -40 -9t-12 -30q0 -55 73 -104.5t165 -49.5q71 0 128.5 31.5t102.5 95.5q41 58 70 165.5t29 207.5q0 130 -75.5 180.5t-283.5 50.5h-18l8 27 q26 -1 58.5 -2.5t37.5 -1.5q197 0 293.5 94.5t96.5 288.5q0 90 -49.5 140t-137.5 50t-160.5 -44.5t-72.5 -92.5q0 -12 9.5 -19.5t37.5 -15.5q36 -9 52.5 -27.5t16.5 -48.5q0 -35 -27 -60.5t-65 -25.5q-42 0 -69 30.5t-27 78.5q0 107 94.5 180.5t241.5 73.5q145 0 234 -77.5 t89 -201.5q0 -135 -105.5 -223t-303.5 -117q151 -27 233 -107.5t82 -199.5q0 -191 -146 -325t-356 -134q-132 0 -219.5 67t-87.5 167z" />
<glyph unicode="4" d="M-41 408l872 987l21 -17l-758 -866h436l125 451l199 114l-156 -565h230l-31 -104h-229l-101 -369h160l-12 -39h-494l12 39h166l103 369h-543z" />
<glyph unicode="5" d="M-35 193q0 60 33 101.5t80 41.5q40 0 68 -27.5t28 -66.5q0 -24 -11.5 -47t-33.5 -41q-8 -7 -24 -19q-37 -27 -37 -53q0 -31 49 -52.5t127 -21.5q81 0 146 39t110 115q64 112 102.5 234.5t38.5 211.5q0 95 -54 153t-141 58q-84 0 -153.5 -54t-114.5 -157l-18 6l215 742 q141 -49 201.5 -63.5t103.5 -14.5q71 0 130.5 23.5t110.5 72.5q-9 -118 -98 -187t-233 -69q-49 0 -107.5 10.5t-126.5 30.5l-118 -401q53 58 122 87t152 29q143 0 231 -87t88 -228q0 -115 -55 -224t-160 -200q-89 -77 -185 -118.5t-185 -41.5q-121 0 -201 63t-80 155z" />
<glyph unicode="6" d="M39 436q0 178 65 344.5t187 298.5q132 143 287 212t346 69v-27q-259 -6 -410.5 -156.5t-232.5 -486.5q50 66 128 101.5t171 35.5q137 0 227 -94.5t90 -240.5q0 -87 -33.5 -173t-95.5 -159q-72 -84 -171.5 -134.5t-190.5 -50.5q-164 0 -265.5 127t-101.5 334zM188 254 q0 -125 52.5 -186.5t158.5 -61.5q65 0 115 33.5t82 97.5q58 116 90.5 237.5t32.5 223.5q0 92 -46 144.5t-126 52.5q-152 0 -255.5 -153t-103.5 -388z" />
<glyph unicode="7" d="M154 1036q37 81 69 169.5t62 193.5l24 -4l-8 -39q65 -33 154 -49.5t207 -16.5q143 0 246 24t179 75l15 -23q-308 -388 -496 -701t-188 -421q0 -25 9 -38.5t40 -27.5q57 -25 72.5 -46.5t15.5 -55.5q0 -44 -24.5 -72.5t-63.5 -28.5q-52 0 -85.5 41t-33.5 105q0 148 145 416 t425 637q-83 -31 -175 -46.5t-196 -15.5q-111 0 -186 8t-128 25l-53 -119z" />
<glyph unicode="8" d="M33 274q0 118 89.5 226t264.5 202q-61 74 -92 141.5t-31 127.5q0 161 115.5 276t279.5 115q116 0 188.5 -66t72.5 -172q0 -107 -75 -200t-231 -176q97 -101 143 -196t46 -196q0 -158 -124 -268.5t-306 -110.5q-153 0 -246.5 83t-93.5 214zM63 272q0 -114 85.5 -190 t213.5 -76q129 0 217.5 74t88.5 182q0 85 -60 182.5t-196 231.5q-166 -78 -257.5 -184t-91.5 -220zM383 1100q0 -54 54 -138t159 -194q150 83 221.5 167t71.5 177q0 100 -65 160.5t-173 60.5q-112 0 -190 -68.5t-78 -164.5z" />
<glyph unicode="9" d="M47 2q259 6 410.5 156.5t232.5 486.5q-50 -66 -128 -101.5t-171 -35.5q-137 0 -227 94.5t-90 241.5q0 87 33.5 173t95.5 159q72 83 171.5 133.5t190.5 50.5q164 0 265.5 -126t101.5 -333q0 -178 -65.5 -345.5t-186.5 -299.5q-132 -143 -287.5 -212t-345.5 -69v27z M252 737q0 -91 46 -143.5t126 -52.5q152 0 255 152.5t103 387.5q0 126 -52 187t-159 61q-64 0 -113 -33t-81 -98q-59 -117 -92 -238.5t-33 -222.5z" />
<glyph unicode=":" horiz-adv-x="674" d="M72 76q0 38 25.5 64t64.5 26t65.5 -26t26.5 -64t-26.5 -64t-65.5 -26q-38 0 -64 26t-26 64zM256 748q0 38 26 65t64 27q39 0 65.5 -27t26.5 -65q0 -39 -26.5 -65t-65.5 -26q-38 0 -64 26.5t-26 64.5z" />
<glyph unicode=";" horiz-adv-x="674" d="M-23 -326q128 52 206.5 126.5t78.5 136.5q0 36 -57 39q-26 2 -40 4q-52 9 -81 36t-29 68q0 44 31 74t78 30q68 0 113 -50.5t45 -129.5q0 -112 -88.5 -208t-245.5 -154zM256 748q0 38 26 65t64 27q39 0 65.5 -27t26.5 -65q0 -39 -26.5 -65t-65.5 -26q-38 0 -64 26.5 t-26 64.5z" />
<glyph unicode="&#x3c;" horiz-adv-x="1706" d="M264 559v103l1178 483v-127l-1000 -408l1000 -405v-129z" />
<glyph unicode="=" horiz-adv-x="1706" d="M254 360v117h1198v-117h-1198zM254 743v117h1198v-117h-1198z" />
<glyph unicode="&#x3e;" horiz-adv-x="1706" d="M264 76v129l1000 405l-1000 408v127l1178 -483v-103z" />
<glyph unicode="?" horiz-adv-x="920" d="M82 61q0 39 26 66t64 27t64 -27t26 -66q0 -38 -26 -64t-64 -26t-64 26.5t-26 63.5zM250 383l82 248q19 60 38.5 104t39.5 70q38 50 115 77q13 4 20 7q154 59 227.5 126.5t73.5 149.5q0 80 -66 134.5t-166 54.5q-83 0 -144.5 -36.5t-61.5 -82.5q0 -27 33 -40q14 -5 22 -9 q24 -13 34.5 -30.5t10.5 -43.5q0 -34 -20.5 -55t-55.5 -21q-43 0 -68.5 30.5t-25.5 82.5q0 100 77 167.5t191 67.5q136 0 214.5 -80.5t78.5 -218.5q0 -113 -75 -205t-224 -161q-17 -8 -56 -23q-111 -44 -161 -92q-36 -34 -61 -107q-3 -9 -4 -13l-37 -111z" />
<glyph unicode="@" horiz-adv-x="2019" d="M145 537q0 204 86 381t250 313q131 110 291 165.5t344 55.5q347 0 553.5 -187t206.5 -499q0 -157 -58 -297t-163 -236q-57 -52 -123.5 -80t-134.5 -28q-97 0 -149 52.5t-58 158.5q-62 -106 -139 -158.5t-170 -52.5q-125 0 -201 92t-76 244q0 108 49 216t138 193 q65 64 144 100t155 36q87 0 143 -49.5t78 -145.5l53 180h143l-170 -610q0 -2 -1 -5q-17 -59 -17 -104q0 -47 25.5 -74.5t68.5 -27.5q34 0 79 17.5t85 48.5q122 90 187 231t65 315q0 140 -50 252t-153 203q-90 79 -216 122.5t-267 43.5q-187 0 -341.5 -58.5t-275.5 -175.5 q-130 -126 -197 -293.5t-67 -369.5q0 -175 57 -304.5t181 -234.5q114 -97 261 -146.5t320 -49.5q163 0 317.5 52t295.5 154l30 -36q-148 -110 -313 -166t-342 -56q-187 0 -342 46.5t-274 138.5q-151 113 -229.5 274.5t-78.5 358.5zM750 375q0 -93 40.5 -147t108.5 -54 q66 0 126 44.5t116 133.5q57 94 91 202.5t34 197.5q0 93 -47.5 153t-120.5 60q-54 0 -99 -31t-92 -100q-72 -108 -114.5 -234t-42.5 -225z" />
<glyph unicode="A" horiz-adv-x="971" d="M-240 0v29q63 0 101.5 23.5t93.5 111.5l764 1220h31v-1355h124v-29h-471v29h162v458h-366l-219 -344q-17 -26 -23 -41.5t-6 -27.5q0 -22 27.5 -32t103.5 -14v-28h-322zM215 516h350v561z" />
<glyph unicode="B" horiz-adv-x="1214" d="M-147 0l6 29h153l361 1298h-154l8 29h564q167 0 266.5 -74.5t99.5 -198.5q0 -139 -119 -245t-317 -140q154 -13 238.5 -87.5t84.5 -196.5q0 -174 -164 -294t-407 -120h-620zM203 29h205q115 0 182.5 21t120.5 71q57 56 95 153.5t38 192.5q0 108 -66 162.5t-196 54.5h-197 zM393 713h142q137 0 204 24.5t115 85.5q48 62 76 150t28 176q0 97 -65 139.5t-217 42.5q-32 0 -101 -3q-8 -1 -12 -1z" />
<glyph unicode="C" horiz-adv-x="1270" d="M55 547q0 169 64 319.5t190 280.5q115 118 241.5 178.5t256.5 60.5q60 0 111 -10.5t94 -32.5q25 -12 77.5 -46.5t79.5 -34.5q31 0 44.5 12.5t23.5 50.5h31l-99 -467h-30q10 45 15 79.5t5 63.5q0 156 -94 253.5t-242 97.5q-127 0 -222 -77t-183 -251q-80 -156 -124 -328.5 t-44 -326.5q0 -165 91 -263t245 -98q138 0 269 91.5t216 248.5l33 -16q-101 -180 -238 -269.5t-309 -89.5q-216 0 -359 162.5t-143 411.5z" />
<glyph unicode="D" horiz-adv-x="1337" d="M-147 0l6 29h153l361 1298h-154l8 29h514q143 0 235 -34t161 -110q69 -77 105 -177t36 -216q0 -155 -58.5 -303t-168.5 -270q-118 -129 -254.5 -187.5t-323.5 -58.5h-620zM209 29h221q166 0 284.5 68.5t194.5 209.5q80 146 128 331.5t48 348.5q0 178 -88 259t-280 81 h-154z" />
<glyph unicode="E" horiz-adv-x="1165" d="M-145 0l8 29h153l361 1298h-154l8 29h951l-68 -369h-31q1 2 1 6q3 42 3 64q0 133 -62 201.5t-183 68.5h-275l-161 -575h116q115 0 156.5 38t75.5 168h30l-139 -509h-29q18 70 26.5 111t8.5 58q0 49 -36 77t-99 28h-121l-188 -694h330q160 0 274.5 104t151.5 283h28 l-84 -416h-1052z" />
<glyph unicode="F" horiz-adv-x="1075" d="M-145 0l8 29h153l361 1298h-154l8 29h930l-47 -369h-31q1 2 1 6q3 42 3 64q0 133 -62 201.5t-183 68.5h-275l-161 -575h116q115 0 156.5 38t75.5 168h30l-139 -509h-29q18 70 26.5 111t8.5 58q0 49 -36 77t-99 28h-121l-188 -694h166l-8 -29h-510z" />
<glyph unicode="G" horiz-adv-x="1309" d="M59 530q0 155 59 301.5t171 272.5q121 135 263.5 207.5t285.5 72.5q81 0 147 -20.5t134 -67.5q16 -11 46 -35q60 -49 95 -49q17 0 31 14.5t26 45.5l26 -4l-131 -475l-26 8q7 38 10.5 79.5t3.5 92.5q0 181 -91 282t-255 101q-137 0 -231 -72t-185 -250q-97 -192 -152 -373 t-55 -301q0 -175 89.5 -265.5t261.5 -90.5q108 0 178.5 56t101.5 167l64 238h-142l9 29h481v-29h-148l-67 -250q-7 -26 -62.5 -79t-126.5 -91q-65 -36 -141 -55t-154 -19q-214 0 -365 164t-151 395z" />
<glyph unicode="H" horiz-adv-x="1460" d="M-147 0l6 29h153l361 1298h-154l8 29h512l-8 -29h-168l-168 -606h692l168 606h-170l9 29h512l-9 -29h-149l-361 -1298h150l-6 -29h-512l6 29h170l184 663h-690l-184 -663h166l-6 -29h-512z" />
<glyph unicode="I" horiz-adv-x="578" d="M-147 0l6 29h153l361 1298h-154l8 29h512l-8 -29h-168l-358 -1298h166l-6 -29h-512z" />
<glyph unicode="J" horiz-adv-x="750" d="M-203 39q0 67 38.5 111.5t96.5 44.5q50 0 82.5 -33.5t32.5 -83.5q0 -49 -30 -80t-76 -31q-13 0 -30 2t-20 2q-8 0 -14 -6t-6 -14q0 -22 37 -38.5t90 -16.5q68 0 109 44.5t79 180.5l336 1206h-153l8 29h512l-8 -29h-168l-277 -997q-65 -236 -179 -353.5t-280 -117.5 q-80 0 -130 49.5t-50 130.5z" />
<glyph unicode="K" horiz-adv-x="1151" d="M-147 0l6 29h153l361 1298h-154l8 29h512l-8 -29h-166l-178 -641l684 565q16 13 22.5 20.5t6.5 14.5q0 19 -33 30t-92 11h-27l8 29h416l-9 -29q-80 -2 -162.5 -40t-176.5 -116l-498 -411l473 -731h113l-8 -29h-498l8 29h160l-395 626l-174 -626h166l-6 -29h-512z" />
<glyph unicode="L" horiz-adv-x="1165" d="M-166 0l6 29h154l360 1298h-153l8 29h512l-8 -29h-166l-361 -1298h297q196 0 342 126t207 349h31l-154 -504h-1075z" />
<glyph unicode="M" horiz-adv-x="1485" d="M-178 0l9 29q86 1 122.5 28.5t66.5 135.5l318 1134h-178l6 29h369l57 -1077l721 1077h332l-9 -29h-151l-361 -1298h166v-29h-524l8 29h160l344 1220l-827 -1249h-29l-62 1274l-313 -1114q-4 -15 -6 -29t-2 -27q0 -39 33 -56.5t112 -19.5l-10 -28h-352z" />
<glyph unicode="N" horiz-adv-x="1251" d="M-178 0v29q92 0 130 27t68 137l318 1134h-176l8 29h365l405 -1120l272 966q1 2 2 6q7 31 7 47q0 38 -30.5 54.5t-112.5 21.5l5 25h349l-9 -23q-82 -6 -117 -28.5t-61 -112.5l-330 -1176l-79 -32l-476 1290l-313 -1114q-4 -15 -6 -29t-2 -27q0 -38 30.5 -55t104.5 -21v-28 h-352z" />
<glyph unicode="O" horiz-adv-x="1346" d="M55 526q0 145 53 290.5t150 266.5q118 149 254.5 225t284.5 76q218 0 355.5 -153.5t137.5 -399.5q0 -147 -52 -291.5t-151 -267.5q-117 -148 -254 -224.5t-284 -76.5q-219 0 -356.5 154t-137.5 401zM240 332q0 -162 81 -249t232 -87q104 0 188 55.5t146 165.5 q43 75 81.5 176.5t73.5 229.5q33 118 49.5 219.5t16.5 179.5q0 163 -81 250.5t-232 87.5q-104 0 -189.5 -56.5t-144.5 -164.5q-46 -80 -84.5 -181t-71.5 -225q-32 -119 -48.5 -220.5t-16.5 -180.5z" />
<glyph unicode="P" horiz-adv-x="1090" d="M-156 0l9 29h153l359 1298h-152l6 29h492q192 0 297.5 -82t105.5 -232q0 -72 -32 -143t-89 -125q-77 -75 -174 -106t-293 -31h-159l-170 -608h168l-9 -29h-512zM375 666h147q112 0 167.5 24t103.5 84q51 64 81.5 159.5t30.5 192.5q0 110 -62.5 156.5t-211.5 46.5 q-31 0 -46 -0.5t-28 -1.5z" />
<glyph unicode="Q" horiz-adv-x="1346" d="M57 524q0 150 52 294t149 265q118 148 255 224.5t284 76.5q218 0 355.5 -153.5t137.5 -399.5q0 -143 -49.5 -284.5t-142.5 -263.5q-97 -126 -210.5 -201t-250.5 -102q-24 -71 -35.5 -126t-11.5 -94q0 -82 56 -114.5t206 -32.5h39v-29h-11q-58 -4 -85 -4 q-181 0 -287.5 59.5t-106.5 157.5q0 18 7 53.5t30 133.5q-181 47 -281 188.5t-100 351.5zM240 332q0 -162 81 -249t232 -87q104 0 188 55.5t146 165.5q43 75 81.5 176.5t73.5 229.5q33 118 49.5 219.5t16.5 179.5q0 163 -81 250.5t-232 87.5q-104 0 -189.5 -56.5 t-144.5 -164.5q-46 -80 -84.5 -181t-71.5 -225q-32 -119 -48.5 -220.5t-16.5 -180.5z" />
<glyph unicode="R" horiz-adv-x="1067" d="M-193 0l9 29h151l361 1298h-152l6 29h557q142 0 228 -74.5t86 -196.5q0 -141 -119 -246t-316 -134q107 -28 160 -91.5t53 -162.5q0 -78 -30.5 -196t-30.5 -159q0 -31 14.5 -48t40.5 -17q28 0 61 23.5t64 66.5l27 -19q-48 -61 -90.5 -86.5t-93.5 -25.5q-87 0 -137 53 t-50 145q0 76 30 207t30 183q0 58 -38 87t-114 29h-170l-184 -665h168l-9 -29h-512zM352 723h166q88 0 154.5 36.5t109.5 106.5q38 62 63 149.5t25 153.5q0 86 -59.5 124t-194.5 38q-28 0 -84 -3q-8 -1 -12 -1z" />
<glyph unicode="S" horiz-adv-x="1006" d="M-63 4l133 483l28 -4q-9 -40 -13.5 -76t-4.5 -69q0 -146 95.5 -239t242.5 -93q138 0 235 98.5t97 239.5q0 153 -244 273l-21 10q-147 73 -204.5 149.5t-57.5 192.5q0 174 111.5 294.5t271.5 120.5q61 0 110.5 -11t90.5 -34q11 -6 29 -17q59 -36 82 -36q19 0 31.5 11 t31.5 49l29 -7l-113 -401l-27 8q9 39 13 69.5t4 55.5q0 130 -74 206.5t-199 76.5q-129 0 -216 -81t-87 -200q0 -130 274 -259q41 -19 62 -30q119 -57 174.5 -137t55.5 -194q0 -200 -137 -341t-332 -141q-106 0 -226 57.5t-137 57.5q-27 0 -47.5 -23t-32.5 -67z" />
<glyph unicode="T" horiz-adv-x="1331" d="M133 909l123 447h1171l-122 -447h-35q17 66 25 116t8 89q0 111 -63.5 162t-203.5 51h-102l-361 -1298h168l-8 -29h-512l8 29h154l358 1298h-151q-149 0 -257 -105t-171 -313h-29z" />
<glyph unicode="U" horiz-adv-x="1262" d="M35 285q0 29 7.5 73.5t23.5 102.5l239 866h-151l6 29h512l-6 -29h-168l-250 -899q-16 -56 -23.5 -103t-7.5 -89q0 -106 77 -168t208 -62q209 0 326 91.5t176 301.5l223 807q6 20 9 34t3 22q0 38 -24.5 51.5t-104.5 13.5h-39l10 29h373l-8 -29q-89 0 -124.5 -22.5 t-59.5 -110.5l-207 -745q-74 -271 -200 -374.5t-368 -103.5q-201 0 -326.5 88t-125.5 226z" />
<glyph unicode="V" horiz-adv-x="930" d="M104 -14l211 1341h-141l8 29h490l-8 -29h-164l-156 -991l608 864q22 30 31.5 51.5t9.5 38.5q0 19 -22 29t-64 10q-5 0 -16.5 -1t-18.5 -1l9 29h274l-9 -29q-69 -2 -116 -70l-12 -18l-889 -1253h-25z" />
<glyph unicode="W" horiz-adv-x="1489" d="M111 -14l208 1341h-143l8 29h490l-8 -29h-164l-154 -989l473 668l49 321h-129l9 29h477l-8 -29h-166l-154 -989l608 862q22 30 31.5 51.5t9.5 38.5q0 19 -22.5 29t-65.5 10q-5 0 -15.5 -1t-17.5 -1l9 29h272l-9 -29q-69 -2 -121 -76q-5 -7 -7 -10l-881 -1255h-28l149 958 l-672 -958h-28z" />
<glyph unicode="X" horiz-adv-x="1042" d="M-160 0v29q145 2 253 143l10 13l368 479l-186 663h-179v29h512v-29h-141l131 -483l260 336q25 31 37.5 54t12.5 40q0 26 -28 40.5t-79 14.5q-5 0 -15.5 -1t-17.5 -1v29h340v-29q-50 -1 -85.5 -19.5t-74.5 -68.5l-337 -434l217 -776h153v-29h-512v29h166l-166 596 l-356 -467q-18 -23 -25.5 -40t-7.5 -32q0 -27 25 -40.5t83 -16.5l1 -29h-359z" />
<glyph unicode="Y" horiz-adv-x="883" d="M-47 0l8 29h156l151 542l-61 756h-135v29h481v-29h-164l60 -713l428 592q21 31 32 51t11 29q0 23 -19.5 33t-66.5 10q-7 0 -23.5 -1t-26.5 -1l9 29h288l-6 -29q-73 0 -125 -72q-5 -8 -8 -12l-493 -686l-136 -528h168l-6 -29h-522z" />
<glyph unicode="Z" horiz-adv-x="1133" d="M-121 0l1055 1327h-295q-199 0 -306.5 -77.5t-193.5 -276.5h-28l104 383h967l-1047 -1327h381q187 0 294 84.5t194 300.5h28l-114 -414h-1039z" />
<glyph unicode="[" horiz-adv-x="664" d="M-100 -436l497 1792h443l-9 -31h-305l-479 -1731h305l-8 -30h-444z" />
<glyph unicode="\" horiz-adv-x="569" d="M221 1384h47l84 -1574h-47z" />
<glyph unicode="]" horiz-adv-x="664" d="M-297 -436l8 30h305l480 1731h-306l9 31h444l-498 -1792h-442z" />
<glyph unicode="^" horiz-adv-x="2048" d="M412 897l522 565h178l520 -565h-92l-518 436l-520 -436h-90z" />
<glyph unicode="_" horiz-adv-x="1024" d="M0 -365h1024v-118h-1024v118z" />
<glyph unicode="`" horiz-adv-x="1024" d="M360 1241q0 28 20.5 49t47.5 21q21 0 44 -15.5t42 -42.5l213 -301h-68l-243 203q-32 26 -44 45t-12 41z" />
<glyph unicode="a" horiz-adv-x="963" d="M-29 311q0 91 26 173.5t75 148.5q70 96 169.5 151.5t200.5 55.5q91 0 145.5 -44t67.5 -128l45 147h156l-180 -633q-11 -36 -17 -63.5t-6 -40.5q0 -24 13 -41t30 -17q31 0 80 48t103 131l24 -17q-78 -118 -135.5 -162.5t-126.5 -44.5q-55 0 -89.5 33.5t-49.5 102.5 q-60 -66 -122 -98.5t-128 -32.5q-125 0 -203 91t-78 240zM119 209q0 -95 37 -147t106 -52q90 0 169 74t114 195l77 267q6 21 8.5 40.5t2.5 36.5q0 79 -44 130.5t-112 51.5q-77 0 -140.5 -49.5t-115.5 -149.5q-46 -88 -74 -197.5t-28 -199.5z" />
<glyph unicode="b" horiz-adv-x="924" d="M-12 252q0 27 3.5 54.5t10.5 56.5l268 964h-123l9 29h49q70 0 131.5 12.5t118.5 38.5l-217 -784q72 109 149.5 160t169.5 51q117 0 189.5 -80.5t72.5 -210.5q0 -107 -37 -199.5t-114 -179.5q-80 -89 -171.5 -133.5t-193.5 -44.5q-139 0 -227 75t-88 191zM131 182 q0 -76 50 -124t126 -48q65 0 128.5 47t103.5 125q65 129 103 256.5t38 206.5q0 81 -36.5 120.5t-111.5 39.5q-79 0 -151 -61.5t-141 -188.5q-51 -94 -80 -194.5t-29 -178.5z" />
<glyph unicode="c" horiz-adv-x="735" d="M-6 291q0 104 41 205t119 186q73 79 151.5 118.5t165.5 39.5q90 0 143.5 -39t53.5 -103q0 -41 -28 -67.5t-71 -26.5q-36 0 -63 27t-27 63q0 59 40 96q5 5 5 7q0 6 -14 10t-39 4q-56 0 -103 -35.5t-83 -105.5q-24 -45 -44.5 -100t-37.5 -121q-24 -92 -36.5 -165.5 t-12.5 -119.5q0 -71 32 -108.5t93 -37.5q92 0 172 72t145 213l29 -16q-63 -148 -156 -229t-199 -81q-115 0 -195.5 91t-80.5 223z" />
<glyph unicode="d" horiz-adv-x="963" d="M-23 311q0 91 26 173.5t75 148.5q72 98 171 153.5t200 55.5q90 0 144.5 -44t68.5 -128l198 657h-121l9 29h49q69 0 130.5 13t116.5 40l-362 -1229q-11 -36 -17 -63.5t-6 -40.5q0 -24 13 -41t30 -17q31 0 80 48.5t103 132.5l24 -19q-76 -116 -134.5 -161.5t-127.5 -45.5 q-55 0 -89.5 34t-49.5 104q-60 -69 -122 -102.5t-128 -33.5q-125 0 -203 92.5t-78 243.5zM125 213q0 -95 37.5 -147t105.5 -52q90 0 169.5 74t113.5 195l78 268q5 21 7.5 39.5t2.5 34.5q0 80 -44 132t-112 52q-76 0 -139.5 -49.5t-116.5 -149.5q-46 -88 -74 -197.5 t-28 -199.5z" />
<glyph unicode="e" horiz-adv-x="711" d="M-18 313q0 86 40 178.5t113 176.5q72 82 153.5 127t157.5 45q88 0 139.5 -48t51.5 -128q0 -102 -91 -175t-218 -73q-33 0 -72.5 6t-83.5 18q-23 -94 -34 -158t-11 -106q0 -76 40 -120t109 -44q76 0 147.5 54.5t133.5 158.5l25 -14q-66 -114 -148.5 -172.5t-177.5 -58.5 q-119 0 -196.5 94t-77.5 239zM178 471q33 -11 65 -16.5t60 -5.5q89 0 148 74t59 188q0 48 -22 74t-64 26q-73 0 -137 -88t-109 -252z" />
<glyph unicode="f" horiz-adv-x="502" d="M-416 -385q0 42 25.5 71t60.5 29q41 0 67.5 -26.5t26.5 -67.5q0 -19 -12 -40t-12 -23q0 -9 9.5 -17t21.5 -8q56 0 111 93.5t91 256.5q17 74 51 231q92 428 162 672h-178l8 29h181q78 279 207 434.5t280 155.5q69 0 109.5 -32.5t40.5 -86.5q0 -39 -26.5 -66.5t-64.5 -27.5 q-43 0 -71.5 26t-28.5 64q0 18 13.5 42t13.5 30q0 5 -10.5 11.5t-22.5 6.5q-67 0 -138 -138.5t-147 -418.5h199l-8 -29h-197q-157 -703 -299 -998.5t-315 -295.5q-65 0 -106.5 34.5t-41.5 88.5z" />
<glyph unicode="g" horiz-adv-x="895" d="M-115 -274q0 86 55.5 150t157.5 97q-51 12 -79.5 47.5t-28.5 85.5q0 69 52 119.5t144 69.5q-57 53 -83.5 103t-26.5 106q0 124 112 230t248 106q79 0 134.5 -30.5t93.5 -94.5q35 63 74.5 94t84.5 31q49 0 74 -22t25 -64q0 -37 -21.5 -61.5t-52.5 -24.5q-34 0 -56 20.5 t-22 50.5q0 2 1 12.5t1 18.5q0 3 -4.5 5.5t-11.5 2.5q-16 0 -33.5 -20.5t-44.5 -71.5q8 -30 12 -55.5t4 -48.5q0 -132 -99.5 -229t-234.5 -97q-25 0 -58.5 5.5t-79.5 16.5q-71 -5 -118 -38t-47 -74q0 -29 25.5 -43t75.5 -14l329 4h7q111 0 168 -48.5t57 -144.5 q0 -173 -145.5 -302.5t-350.5 -129.5q-156 0 -247 65t-91 173zM-20 -252q0 -103 78 -164t208 -61q67 0 134.5 26t129.5 76q59 48 94 109t35 114q0 62 -40.5 91.5t-126.5 29.5h-347q-74 -23 -119.5 -84t-45.5 -137zM207 403q0 -60 35.5 -90t105.5 -30q48 0 81 24.5t56 79.5 q38 87 62 183t24 139q0 47 -35.5 76.5t-93.5 29.5q-41 0 -76.5 -19.5t-54.5 -52.5q-16 -29 -25.5 -49t-13.5 -35q-35 -117 -50 -176.5t-15 -79.5z" />
<glyph unicode="h" horiz-adv-x="1014" d="M-57 0l407 1327h-121l9 29h49q69 0 130 12.5t118 38.5l-254 -821q99 127 197.5 190.5t195.5 63.5q80 0 127 -42.5t47 -115.5q0 -20 -5.5 -46.5t-19.5 -72.5l-123 -381q-11 -35 -16.5 -60t-5.5 -40q0 -26 12.5 -44t30.5 -18q31 0 80 48t102 131l25 -19 q-76 -116 -132.5 -160.5t-123.5 -44.5q-63 0 -98 38t-35 106q0 22 4.5 47.5t13.5 54.5l135 432q9 29 14 51t5 35q0 31 -18 47.5t-52 16.5q-39 0 -91.5 -24.5t-109.5 -69.5q-80 -64 -136 -144.5t-85 -175.5l-119 -389h-157z" />
<glyph unicode="i" horiz-adv-x="508" d="M6 115q0 23 6.5 54.5t26.5 94.5l160 522h-123l8 29h80q71 0 118.5 6t90.5 19l-195 -645q-11 -34 -16.5 -62t-5.5 -45q0 -27 13.5 -41t39.5 -14q35 0 79 33.5t128 128.5l20 -17q-86 -105 -155 -151.5t-138 -46.5q-63 0 -100 36t-37 99zM352 1272q0 51 31 89t72 38 q31 0 53 -26.5t22 -65.5q0 -52 -30 -87.5t-72 -35.5q-32 0 -54 25t-22 63z" />
<glyph unicode="j" horiz-adv-x="446" d="M-453 -373q0 45 24.5 72t66.5 27q37 0 60 -24t23 -62q0 -27 -12 -49t-12 -25q0 -9 6.5 -14t17.5 -5q44 0 83 53.5t71 155.5l311 1030h-123l9 29h78q71 0 119.5 6t90.5 19l-202 -680q-98 -329 -214.5 -491.5t-254.5 -162.5q-64 0 -103 33.5t-39 87.5zM340 1272q0 51 31 89 t71 38q32 0 54 -26.5t22 -65.5q0 -52 -30 -87.5t-72 -35.5q-32 0 -54 25t-22 63z" />
<glyph unicode="k" horiz-adv-x="915" d="M-63 0l430 1327h-121l8 29h49q69 0 130 12.5t118 38.5l-295 -875h14q78 0 131 33.5t93 106.5q9 18 28 52q85 163 166 163q52 0 85.5 -28.5t33.5 -72.5q0 -35 -25 -59.5t-61 -24.5q-29 0 -47 16t-27 50q-6 24 -12.5 32.5t-16.5 8.5q-27 0 -70 -87q-15 -29 -24 -46 q-48 -90 -85.5 -122.5t-92.5 -39.5q103 -15 149.5 -64.5t57.5 -158.5l14 -137q9 -71 19.5 -88t34.5 -17q36 0 77 57.5t72 155.5l27 -6q-33 -132 -98 -203t-152 -71q-44 0 -72.5 18.5t-46.5 58.5q-21 49 -26 192q-2 61 -5 95q-6 90 -38.5 124t-108.5 36l-156 -506h-157z" />
<glyph unicode="l" horiz-adv-x="537" d="M14 119q0 22 5.5 48.5t17.5 61.5l358 1098h-121l9 29h49q69 0 130 12.5t118 38.5l-402 -1227q-10 -32 -16 -56.5t-6 -35.5q0 -21 14.5 -36t36.5 -15q37 0 92 43t119 123l26 -19q-79 -103 -147.5 -150.5t-136.5 -47.5q-71 0 -108.5 34t-37.5 99z" />
<glyph unicode="m" horiz-adv-x="1417" d="M-61 0l243 786h-121l9 29h77q72 0 120.5 6t90.5 19l-82 -260q105 135 190 197.5t163 62.5q68 0 107.5 -40t39.5 -110q0 -28 -3.5 -55.5t-10.5 -54.5q104 135 189 197.5t163 62.5q69 0 108.5 -40t39.5 -110q0 -33 -6.5 -69t-18.5 -76l-131 -428q-4 -12 -6 -24t-2 -21 q0 -20 13 -33.5t32 -13.5q32 0 79 45t101 129l23 -17q-76 -117 -132.5 -162t-123.5 -45q-63 0 -96 35t-33 101q0 32 7.5 70.5t28.5 107.5l103 334q12 40 19 70t7 42q0 23 -11 38t-28 15q-41 0 -86 -23t-96 -71q-79 -74 -127 -148t-73 -161l-115 -385h-162l186 623 q12 37 18.5 67t6.5 45q0 24 -10.5 38.5t-26.5 14.5q-94 0 -213 -120t-170 -283l-121 -385h-159z" />
<glyph unicode="n" horiz-adv-x="1014" d="M-57 0l239 786h-121l9 29h77q72 0 120.5 6t90.5 19l-77 -254q99 127 197.5 190.5t195.5 63.5q80 0 127 -42.5t47 -115.5q0 -21 -6 -50t-19 -69l-123 -381l-1 -5q-23 -75 -23 -95q0 -26 12.5 -44t30.5 -18q31 0 81 48t103 131l25 -19q-75 -114 -133 -159.5t-125 -45.5 q-63 0 -97 38t-34 106q0 22 4.5 47t13.5 55l127 398l6 18q21 68 21 102q0 31 -18 47.5t-52 16.5q-39 0 -91.5 -24.5t-109.5 -69.5q-80 -64 -136 -144.5t-85 -175.5l-119 -389h-157z" />
<glyph unicode="o" horiz-adv-x="891" d="M-20 317q0 89 33 177t93 161q82 98 167.5 141.5t193.5 43.5q134 0 215.5 -92.5t81.5 -245.5q0 -93 -32.5 -180.5t-94.5 -161.5q-77 -93 -162 -139t-180 -46q-142 0 -228.5 94t-86.5 248zM121 188q0 -90 43 -138t125 -48q66 0 119 47t102 150q51 107 82 227.5t31 206.5 q0 92 -41 137t-125 45q-69 0 -121 -46.5t-100 -152.5q-53 -110 -84 -229.5t-31 -198.5z" />
<glyph unicode="p" horiz-adv-x="977" d="M-266 -494l8 29h113l335 1251h-120l8 29h78q71 0 118.5 6t90.5 19l-46 -162q62 81 130.5 122.5t142.5 41.5q125 0 202.5 -92.5t77.5 -241.5q0 -91 -25.5 -173.5t-74.5 -148.5q-70 -95 -169.5 -149.5t-201.5 -54.5q-89 0 -142.5 43t-72.5 129l-176 -619h117l-6 -29h-387z M211 199q0 -81 43.5 -133t112.5 -52q76 0 139.5 49.5t116.5 149.5q46 88 74 197.5t28 199.5q0 96 -37.5 147.5t-105.5 51.5q-89 0 -170 -74t-115 -192l-76 -269q-5 -18 -7.5 -37.5t-2.5 -37.5z" />
<glyph unicode="q" horiz-adv-x="963" d="M-23 315q0 91 26 173.5t75 148.5q70 96 170 151.5t201 55.5q90 0 144.5 -44t68.5 -128l32 114h158l-348 -1251h112l-8 -29h-385l6 29h117l162 580q-61 -67 -123 -100t-127 -33q-125 0 -203 92t-78 241zM125 213q0 -95 37.5 -147t105.5 -52q90 0 169.5 74t113.5 195 l78 268q5 21 7.5 39.5t2.5 34.5q0 80 -44 132t-112 52q-76 0 -139.5 -49.5t-116.5 -149.5q-46 -88 -74 -197.5t-28 -199.5z" />
<glyph unicode="r" horiz-adv-x="664" d="M-61 0l243 786h-121l9 29h77q72 0 120.5 6t90.5 19l-73 -217q74 110 143 162.5t141 52.5q48 0 74.5 -25.5t26.5 -71.5q0 -43 -27.5 -71.5t-69.5 -28.5q-34 0 -59 24t-25 56q0 11 7.5 29.5t7.5 25.5q0 2 -4 2q-57 0 -142 -103t-127 -239l-133 -436h-159z" />
<glyph unicode="s" horiz-adv-x="743" d="M-72 178q0 50 32.5 85.5t76.5 35.5q45 0 73.5 -25.5t28.5 -64.5q0 -25 -17.5 -48t-47.5 -38q-15 -7 -40.5 -13.5t-25.5 -13.5q0 -20 57 -52t121 -32q89 0 147 47t58 117q0 77 -115 172q-13 11 -19 16q-79 66 -103.5 109.5t-24.5 97.5q0 111 85 190t208 79 q102 0 168.5 -43t66.5 -107q0 -41 -27 -68.5t-69 -27.5t-70 26t-28 64q0 48 60 83q9 6 9 7q0 13 -28.5 25t-67.5 12q-81 0 -132.5 -45t-51.5 -115q0 -68 137 -171q22 -17 33 -25q80 -62 104.5 -106.5t24.5 -106.5q0 -108 -103.5 -186.5t-248.5 -78.5q-115 0 -193 59t-78 142 z" />
<glyph unicode="t" horiz-adv-x="578" d="M16 117q0 24 5.5 52t15.5 60l170 557h-125l8 29h131l72 246q48 3 91 15t81 34l-94 -295h207l-9 -29h-204l-185 -606q-12 -37 -17 -59t-5 -33q0 -21 14.5 -36t36.5 -15q43 0 107.5 56.5t152.5 170.5l27 -20q-110 -145 -184.5 -201.5t-149.5 -56.5q-71 0 -108.5 33.5 t-37.5 97.5z" />
<glyph unicode="u" horiz-adv-x="948" d="M-23 125q0 18 7 53t18 72l166 536h-121l8 29h78q72 0 120 6t91 19l-201 -656q-8 -27 -13 -51t-5 -37q0 -29 18.5 -47t49.5 -18q27 0 59.5 16.5t77.5 52.5q89 73 139.5 144.5t81.5 167.5l129 403h156l-199 -629q-12 -38 -18.5 -65.5t-6.5 -40.5q0 -21 13 -37t30 -16 q32 0 80 46t103 130l22 -17q-62 -102 -126.5 -153t-129.5 -51q-63 0 -98 37t-35 104q0 20 4.5 45.5t13.5 56.5q-89 -119 -181 -181t-179 -62q-69 0 -110.5 39t-41.5 104z" />
<glyph unicode="v" horiz-adv-x="782" d="M-8 123q0 19 6.5 54.5t17.5 72.5l166 536h-121l9 29h77q72 0 120.5 6t90.5 19l-200 -656q-9 -27 -14 -51.5t-5 -38.5q0 -30 19 -48.5t49 -18.5q40 0 100.5 41t124.5 112q84 96 140.5 212.5t56.5 180.5q0 40 -48 69q-11 6 -16 9q-31 21 -46 43.5t-15 48.5q0 40 25 68.5 t61 28.5q52 0 80 -37t28 -105q0 -103 -48.5 -227t-135.5 -240q-92 -123 -188.5 -189.5t-182.5 -66.5q-67 0 -109 41t-42 107z" />
<glyph unicode="w" horiz-adv-x="1280" d="M-29 123q0 19 7 54.5t18 72.5l170 536h-121l6 29h80q71 0 118.5 6t90.5 19l-203 -656q-8 -27 -13 -51.5t-5 -38.5q0 -30 18.5 -48.5t48.5 -18.5q27 0 59.5 16t78.5 53q84 70 147.5 158t85.5 162l117 399h155l-186 -631q-9 -28 -13.5 -52.5t-4.5 -37.5q0 -30 18.5 -48.5 t48.5 -18.5q41 0 102 41t124 112q84 96 140 212.5t56 180.5q0 40 -48 69l-15 9q-31 20 -45.5 42.5t-14.5 49.5q0 41 24.5 69t59.5 28q52 0 80.5 -37t28.5 -105q0 -103 -49 -227t-136 -240q-91 -122 -187.5 -189t-180.5 -67q-72 0 -113 39.5t-41 108.5q0 15 6 47.5t17 73.5 q-100 -133 -194.5 -201t-180.5 -68q-71 0 -112.5 39.5t-41.5 108.5z" />
<glyph unicode="x" horiz-adv-x="1034" d="M-76 117q0 52 27 86.5t67 34.5q32 0 54 -24t22 -58q0 -59 -59 -103q-12 -9 -12 -12q0 -8 13 -16.5t27 -8.5q49 0 101.5 41.5t97.5 116.5q26 42 48.5 95t43.5 122q24 81 38 154t14 117q0 58 -26 95.5t-65 37.5q-51 0 -112 -47t-140 -148l-22 21q86 115 163 167t161 52 q88 0 136.5 -46.5t63.5 -146.5q59 103 113.5 148t120.5 45q64 0 102.5 -35t38.5 -94q0 -40 -25.5 -67.5t-62.5 -27.5q-34 0 -55 21t-21 55q0 44 39 87q8 9 8 12q0 5 -10 8.5t-25 3.5q-43 0 -79 -27.5t-82 -97.5q-27 -41 -49 -92t-46 -129q-22 -76 -34.5 -142.5t-12.5 -109.5 q0 -66 28 -108t69 -42q47 0 109.5 46t148.5 145l24 -21q-88 -117 -190 -183.5t-191 -66.5q-76 0 -115.5 58.5t-39.5 169.5v22q-64 -121 -134.5 -184.5t-142.5 -63.5q-54 0 -90.5 40t-36.5 100z" />
<glyph unicode="y" horiz-adv-x="924" d="M-303 -391q0 48 28 80t70 32q39 0 61.5 -23.5t22.5 -66.5q0 -39 -36 -77q-7 -7 -7 -9q0 -5 9.5 -7.5t31.5 -2.5q88 0 191.5 109.5t210.5 314.5l-78 678q-7 61 -21.5 87t-42.5 26q-23 0 -61 -47.5t-82 -133.5l-31 13q62 131 125.5 193.5t134.5 62.5q58 0 91 -36t40 -108 l56 -506l221 424q59 114 114.5 171t104.5 57q44 0 72 -26.5t28 -68.5q0 -41 -24 -67.5t-62 -26.5q-36 0 -58 19.5t-22 50.5q0 11 6.5 27.5t6.5 21.5q0 2 -1.5 4t-2.5 2q-17 0 -59 -57t-89 -146l-223 -421q-209 -400 -332 -530t-260 -130q-58 0 -95.5 33t-37.5 84z" />
<glyph unicode="z" horiz-adv-x="883" d="M-55 18q0 20 30 49q5 6 9 9l616 602q-65 -22 -137.5 -32.5t-155.5 -10.5q-47 0 -92 4.5t-90 13.5l-35 -90h-33l101 246q158 -23 266.5 -34t177.5 -11q29 0 58.5 4.5t59.5 13.5q-2 11 -3.5 20t-1.5 17q0 11 8 19t20 8q13 0 22 -9.5t9 -21.5q0 -5 -5 -13t-15 -18l-649 -630 q53 9 96 13.5t80 4.5q97 0 211 -38t131 -38q21 0 35 12.5t14 30.5q0 12 -35 47.5t-35 71.5q0 26 18 45t44 19q30 0 49.5 -26.5t19.5 -68.5q0 -107 -84.5 -170t-230.5 -63q-75 0 -192.5 34.5t-155.5 34.5q-14 0 -30.5 -5.5t-33.5 -16.5q1 -4 1.5 -8.5t0.5 -14.5 q0 -15 -7.5 -23.5t-20.5 -8.5q-15 0 -25 9t-10 23z" />
<glyph unicode="{" horiz-adv-x="1024" d="M176 606v60q165 15 223 74t58 216v213q0 200 81 273.5t298 73.5h10v-51q-142 -2 -194 -55.5t-52 -209.5v-143q0 -226 -61 -308.5t-226 -113.5q165 -31 226 -113.5t61 -308.5v-143q0 -156 51.5 -208.5t194.5 -54.5v-51h-10q-217 0 -298 73.5t-81 272.5v213q0 158 -59 218 t-222 73z" />
<glyph unicode="|" horiz-adv-x="1024" d="M449 -483v2048h126v-2048h-126z" />
<glyph unicode="}" horiz-adv-x="1024" d="M178 -193q143 2 194.5 54.5t51.5 208.5v143q0 226 61 308.5t226 113.5q-165 31 -226 113.5t-61 308.5v143q0 156 -52 209.5t-194 55.5v51h10q216 0 297.5 -74t81.5 -273v-213q0 -157 58 -216t223 -74v-60q-163 -13 -222 -73t-59 -218v-213q0 -198 -81.5 -272t-297.5 -74 h-10v51z" />
<glyph unicode="~" horiz-adv-x="1706" d="M178 461v133q105 73 202 109t185 36q56 0 116.5 -12.5t174.5 -52.5q12 -4 35 -13q164 -59 254 -59q85 0 176 36.5t209 119.5v-131q-101 -72 -197.5 -108t-189.5 -36q-43 0 -90.5 9t-100.5 26q-30 10 -87 31q-202 72 -302 72q-83 0 -173.5 -37.5t-211.5 -122.5z" />
<glyph unicode="&#xa0;" />
<glyph unicode="&#xa1;" horiz-adv-x="674" d="M84 236q99 125 186.5 326t161.5 470l29 -8q-73 -247 -105 -410t-32 -278q0 -33 1 -57.5t3 -51.5q-66 -40 -114 -101.5t-87 -154.5q0 8 1 23q3 69 3 98q0 49 -11.5 83.5t-35.5 60.5zM459 1294q0 38 26.5 64t65.5 26q38 0 64 -26t26 -64t-26 -65t-64 -27t-65 27t-27 65z " />
<glyph unicode="&#xa2;" d="M53 295q0 102 43 201t125 184q76 77 154 116.5t157 41.5l48 155h34l-47 -155h6q83 0 137 -39t54 -94q0 -44 -24.5 -71.5t-63.5 -27.5q-44 0 -69 23.5t-25 62.5q0 61 40 97q5 5 5 6q0 6 -18 10t-50 4l-231 -784q6 -2 11.5 -2h16.5q93 0 175.5 72t148.5 210l29 -16 q-68 -151 -163.5 -228t-215.5 -77h-15l-51 -172l-35 6l52 172q-106 29 -167 110.5t-61 194.5zM219 170q0 -55 18.5 -89.5t57.5 -49.5l229 778q-62 -11 -111.5 -61.5t-88.5 -143.5q-48 -109 -76.5 -230.5t-28.5 -203.5z" />
<glyph unicode="&#xa3;" d="M-147 131q0 88 69.5 144.5t181.5 56.5q47 0 100.5 -12.5t118.5 -38.5q14 28 20.5 61t6.5 72q0 50 -11.5 124.5t-33.5 170.5h-223l8 32h211q-6 37 -9 69.5t-3 59.5q0 207 137 349.5t336 142.5q121 0 196.5 -60.5t75.5 -156.5q0 -67 -32.5 -110.5t-81.5 -43.5 q-37 0 -60.5 20t-23.5 50q0 21 13.5 43t35.5 35q9 5 28 13q56 23 56 58q0 45 -52 79t-124 34q-136 0 -224 -131.5t-88 -335.5q0 -32 1.5 -61t4.5 -53l287 -1l-10 -32h-274q1 -12 1.5 -24.5t0.5 -37.5q0 -108 -29 -205t-88 -188q122 -68 201 -99.5t129 -31.5q66 0 112.5 36 t77.5 111l25 -2q-36 -134 -119.5 -213.5t-188.5 -79.5q-70 0 -146.5 42.5t-160.5 127.5q-76 -87 -145.5 -128.5t-139.5 -41.5q-74 0 -120.5 43.5t-46.5 112.5zM-115 150q0 -53 38 -88t95 -35q71 0 130.5 43t111.5 133q-56 50 -103 73t-91 23q-77 0 -129 -43.5t-52 -105.5z " />
<glyph unicode="&#xa4;" d="M-45 535l20 47h101q4 44 12 87t18 83h-116l20 47h109q81 251 240 405t331 154q107 0 196 -61.5t99 -61.5q21 0 33 15t18 48h29l-74 -456h-30q8 41 12 75.5t4 63.5q0 154 -76 250t-194 96q-127 0 -222.5 -125.5t-177.5 -402.5h385l-20 -47h-377q-11 -38 -20.5 -79.5 t-18.5 -90.5h340l-21 -47h-327q-8 -50 -12.5 -95t-4.5 -88q0 -150 69 -245t175 -95q115 0 217.5 86.5t171.5 243.5l31 -16q-79 -171 -189.5 -261t-242.5 -90q-176 0 -282.5 143.5t-106.5 385.5v31h-119z" />
<glyph unicode="&#xa5;" d="M33 614l12 48h295l-16 167h-232l12 48h218l-35 434h-133v26h446v-26h-160l58 -697l422 576q20 27 31.5 48.5t11.5 31.5q0 23 -20.5 33t-70.5 10q-5 0 -19.5 -1t-23.5 -1l9 26h284l-6 -26q-73 0 -124 -72q-4 -6 -7 -10l-250 -352h242l-14 -48h-261l-120 -167h333l-12 -48 h-354l-49 -65l-135 -520h165l-6 -29h-487l6 29h156l149 536l-6 49h-309z" />
<glyph unicode="&#xa6;" horiz-adv-x="1024" d="M449 -350v758h126v-758h-126zM449 674v758h126v-758h-126z" />
<glyph unicode="&#xa7;" horiz-adv-x="1024" d="M-104 -190q0 65 36 104t97 39q44 0 70 -24.5t26 -65.5t-25.5 -64.5t-68.5 -23.5q-9 0 -26.5 2t-27.5 2q-15 0 -24.5 -7.5t-9.5 -21.5q0 -55 94 -111.5t211 -56.5q140 0 241 82t101 195q0 139 -239 309q-26 19 -39 28l-3 2q-254 181 -254 310q0 101 75 197.5t202 156.5 q-28 34 -42 74.5t-14 89.5q0 147 119.5 252.5t288.5 105.5q125 0 205 -61.5t80 -155.5q0 -48 -28.5 -76t-78.5 -28q-45 0 -71.5 24.5t-26.5 65.5q0 35 17 56t53 30q6 2 16 4q37 8 37 27q0 26 -60 56t-135 30q-139 0 -224 -64.5t-85 -169.5q0 -95 207 -236q44 -30 67 -46 q169 -116 217 -178t48 -136q0 -101 -72.5 -204t-198.5 -179q22 -37 32.5 -78t10.5 -92q0 -180 -128.5 -299.5t-319.5 -119.5q-149 0 -249.5 74.5t-100.5 181.5zM156 627q0 -105 216 -255q26 -18 40 -28q20 -14 59 -41q119 -82 162 -131q99 57 145.5 114.5t46.5 123.5 q0 101 -302 313q-106 74 -167 119q-99 -46 -149.5 -100.5t-50.5 -114.5z" />
<glyph unicode="&#xa8;" horiz-adv-x="1024" d="M311 1100q0 38 30 68t69 30q40 0 69 -29t29 -69q0 -44 -28 -72.5t-70 -28.5q-41 0 -70 30t-29 71zM686 1100q0 38 30 68t68 30q40 0 69.5 -29t29.5 -69q0 -44 -28 -72.5t-71 -28.5q-40 0 -69 30t-29 71z" />
<glyph unicode="&#xa9;" horiz-adv-x="1683" d="M139 678q0 140 53 268.5t152 229.5q98 99 228 152.5t272 53.5q137 0 266.5 -53.5t226.5 -150.5q98 -97 152.5 -228.5t54.5 -271.5t-53 -268t-154 -230q-98 -100 -225 -152.5t-270 -52.5t-269 52.5t-227 152.5t-154 227t-53 271zM225 678q0 -125 47 -238.5t136 -201.5 q88 -89 198.5 -135t235.5 -46q126 0 236.5 46t197.5 135q88 90 135 203t47 237t-47.5 240.5t-132.5 201.5q-86 87 -200.5 135t-233.5 48q-123 0 -237.5 -48.5t-200.5 -136.5q-88 -89 -134.5 -202.5t-46.5 -237.5zM426 664q0 186 116 312t285 126q74 0 148 -34t82 -34 q27 0 42 14.5t21 47.5h35l2 -314h-41q-34 137 -104 206t-176 69q-123 0 -185.5 -94.5t-62.5 -278.5q0 -189 67 -285t199 -96q86 0 156 43t127 131l34 -24q-58 -105 -143 -157t-199 -52q-167 0 -285 123t-118 297z" />
<glyph unicode="&#xaa;" horiz-adv-x="723" d="M-23 985q0 64 19.5 121.5t56.5 103.5q54 68 128.5 107t150.5 39q68 0 108.5 -31t51.5 -90l34 104h117l-135 -444q-10 -32 -14.5 -48.5t-4.5 -23.5q0 -17 10 -29t23 -12q23 0 59 33t78 92l19 -12q-57 -81 -100.5 -112t-96.5 -31q-41 0 -67 23.5t-37 70.5 q-45 -47 -91.5 -69.5t-97.5 -22.5q-94 0 -152.5 63.5t-58.5 167.5zM90 913q0 -66 27.5 -101.5t79.5 -35.5q68 0 127.5 51t85.5 136l57 188q5 19 6.5 30.5t1.5 22.5q0 56 -33 91.5t-84 35.5q-58 0 -105 -34t-87 -105q-34 -61 -55 -138t-21 -141z" />
<glyph unicode="&#xab;" horiz-adv-x="909" d="M45 412q95 72 181 144t163 142h29q-40 -66 -102.5 -137t-155.5 -155l20 -39q94 -181 123 -263h-31q-42 66 -99.5 143.5t-127.5 164.5zM389 412q89 68 174 139t168 147h31q-40 -66 -102.5 -137t-155.5 -155l20 -39q94 -181 123 -263h-31q-42 66 -99.5 143.5t-127.5 164.5z " />
<glyph unicode="&#xac;" horiz-adv-x="1706" d="M254 741v117h1198v-502h-115v385h-1083z" />
<glyph unicode="&#xad;" horiz-adv-x="786" d="M72 344l37 131h448l-39 -131h-446z" />
<glyph unicode="&#xae;" horiz-adv-x="1683" d="M139 678q0 140 53 268.5t152 229.5q98 99 228 152.5t272 53.5q138 0 268.5 -54t228.5 -152q97 -97 150 -228t53 -272q0 -137 -55.5 -267.5t-157.5 -232.5q-99 -99 -224.5 -150t-270.5 -51q-137 0 -263 52.5t-227 152.5t-154 227t-53 271zM225 678q0 -127 46.5 -239 t136.5 -201q88 -89 198.5 -135t235.5 -46q126 0 236.5 46t197.5 135q88 90 135 203t47 237t-47.5 241.5t-132.5 200.5q-86 87 -200.5 135t-233.5 48q-122 0 -236 -48t-202 -137t-134.5 -202.5t-46.5 -237.5zM469 291v40q72 3 99.5 24.5t27.5 76.5v516q0 55 -26 76t-101 25 v43h393q147 0 232.5 -54.5t85.5 -146.5q0 -76 -69.5 -124t-217.5 -75q93 -29 142 -77.5t71 -133.5q6 -22 11 -63q13 -88 59 -88q32 0 49.5 34t17.5 99h43v-12q0 -88 -40.5 -133.5t-119.5 -45.5q-46 0 -78.5 17t-48.5 49q-18 40 -21 113.5t-9 95.5q-20 68 -70.5 100.5 t-136.5 32.5h-33v-248q0 -54 26.5 -75.5t98.5 -25.5v-40h-385zM729 719q16 -1 32 -1.5t34 -0.5q112 0 173.5 45.5t61.5 128.5q0 73 -53 117.5t-143 44.5q-52 0 -78.5 -18.5t-26.5 -53.5v-262z" />
<glyph unicode="&#xaf;" horiz-adv-x="1024" d="M326 1036l26 125h516l-26 -125h-516z" />
<glyph unicode="&#xb0;" horiz-adv-x="674" d="M55 1171q0 119 82.5 201t200.5 82q117 0 200 -83t83 -200q0 -116 -83.5 -199t-201.5 -83t-199.5 82t-81.5 200zM135 1171q0 -84 59.5 -143t143.5 -59t142.5 59t58.5 143t-58.5 142.5t-142.5 58.5t-143.5 -58.5t-59.5 -142.5z" />
<glyph unicode="&#xb1;" horiz-adv-x="1706" d="M254 41v117h1198v-117h-1198zM254 719v117h541v344h118v-344h539v-117h-539v-344h-118v344h-541z" />
<glyph unicode="&#xb2;" horiz-adv-x="649" d="M-31 532q15 48 43.5 89t75.5 81q26 24 117 83q61 39 96 63q92 62 144.5 149t52.5 177q0 71 -47 114t-123 43q-72 0 -127.5 -39t-55.5 -86q0 -14 6 -25t25 -28q6 -6 18 -16q39 -35 39 -56q0 -18 -15 -31.5t-38 -13.5q-28 0 -49.5 34.5t-21.5 84.5q0 87 68.5 141t180.5 54 q115 0 187.5 -54.5t72.5 -138.5q0 -81 -49.5 -145.5t-179.5 -145.5q-32 -19 -98 -55q-182 -100 -246 -180h358q50 0 70.5 12.5t48.5 50.5l15 -6q-33 -53 -53.5 -88.5t-37.5 -67.5h-477z" />
<glyph unicode="&#xb3;" horiz-adv-x="649" d="M8 657q0 45 29 76t69 31q30 0 48 -15.5t18 -39.5q0 -27 -19 -43.5t-51 -16.5q-2 0 -10.5 1t-15.5 1q-19 0 -27 -5.5t-8 -18.5q0 -33 48.5 -62.5t109.5 -29.5q45 0 83 18.5t70 56.5q26 35 45 99.5t19 126.5q0 77 -49.5 107t-186.5 30h-12l4 16q22 0 43.5 -1t22.5 -1 q128 0 192 57t64 173q0 54 -32.5 84t-90.5 30q-59 0 -106.5 -26.5t-47.5 -55.5q0 -8 6 -12t24 -8q24 -6 35 -17.5t11 -29.5q0 -20 -18 -36t-42 -16q-27 0 -45 18.5t-18 47.5q0 65 62 108.5t159 43.5q95 0 154 -46.5t59 -119.5q0 -81 -69.5 -134t-200.5 -71q99 -17 154 -65 t55 -119q0 -114 -97 -194.5t-235 -80.5q-88 0 -145.5 39.5t-57.5 99.5z" />
<glyph unicode="&#xb4;" horiz-adv-x="1024" d="M414 950l299 314q18 20 39.5 31.5t40.5 11.5q27 0 48 -21t21 -49q0 -22 -16 -41.5t-53 -44.5l-308 -201h-71z" />
<glyph unicode="&#xb5;" horiz-adv-x="1120" d="M-80 -330q0 40 64.5 273.5t105.5 427.5l109 514h147l-104 -492q-6 -30 -9.5 -58.5t-3.5 -53.5q0 -83 42 -129t118 -46q98 0 163.5 68.5t94.5 200.5l111 510h149l-114 -531q-13 -59 -17 -87.5t-4 -49.5q0 -48 26 -78t66 -30q35 0 65.5 18t51.5 51t41 93.5t39 60.5 q12 0 19 -10t7 -27q0 -25 -11 -66.5t-29 -83.5q-38 -82 -95 -122.5t-135 -40.5q-68 0 -108.5 51t-40.5 139v23q-46 -110 -116 -164t-165 -54q-96 0 -152.5 54.5t-70.5 161.5q-27 -136 -52 -339q-34 -272 -112 -272q-37 0 -58.5 23.5t-21.5 64.5z" />
<glyph unicode="&#xb6;" horiz-adv-x="1024" d="M76 1130q0 157 107.5 253t285.5 96h479v-78h-125v-1401h-94v1401h-182v-1401h-96v782q-173 8 -274 102.5t-101 245.5z" />
<glyph unicode="&#xb7;" horiz-adv-x="494" d="M152 655q0 39 26.5 66t65.5 27q38 0 64 -27t26 -66q0 -38 -26 -64t-64 -26t-65 26.5t-27 63.5z" />
<glyph unicode="&#xb8;" horiz-adv-x="1024" d="M113 -369l20 43q68 -27 128 -43t89 -16q52 0 79.5 28.5t27.5 82.5q0 49 -26.5 73.5t-78.5 24.5q-12 0 -27 -1.5t-32 -4.5l57 182h33l-36 -135q19 3 37.5 4.5t33.5 1.5q94 0 146 -40t52 -112q0 -68 -62.5 -109.5t-166.5 -41.5q-55 0 -124 16t-150 47z" />
<glyph unicode="&#xb9;" horiz-adv-x="651" d="M37 532l6 21q7 -1 15.5 -1.5t23.5 -0.5q52 0 73.5 15.5t41.5 74.5l200 625q-52 -33 -118 -64t-154 -65l-6 16q81 30 183.5 82.5t254.5 142.5l-252 -772q-2 -6 -3 -12t-1 -14q0 -25 77 -26q25 -1 40 -1l-4 -21h-377z" />
<glyph unicode="&#xba;" horiz-adv-x="668" d="M-16 991q0 62 25 123.5t71 112.5q62 68 126 98.5t144 30.5q101 0 162 -64.5t61 -171.5q0 -65 -24.5 -126.5t-71.5 -112.5q-57 -65 -120.5 -97t-135.5 -32q-107 0 -172 65.5t-65 173.5zM90 899q0 -63 32.5 -96t94.5 -33q50 0 90 33t76 104q38 75 61 159.5t23 143.5 q0 66 -30.5 97.5t-94.5 31.5q-50 0 -89 -32t-77 -107q-39 -78 -62.5 -162t-23.5 -139z" />
<glyph unicode="&#xbb;" horiz-adv-x="909" d="M-6 104q40 67 102.5 138t155.5 155l-20 39q-95 181 -123 262h30q43 -65 100.5 -143t127.5 -164q-89 -68 -174.5 -139.5t-167.5 -147.5h-31zM336 104q40 67 102.5 138t155.5 155l-20 39q-95 181 -123 262h30q43 -65 100.5 -143t127.5 -164q-95 -72 -181.5 -144 t-162.5 -143h-29z" />
<glyph unicode="&#xbc;" horiz-adv-x="1583" d="M35 588l4 18q8 -1 16 -1.5t23 -0.5q47 0 68 14.5t40 71.5l193 582q-50 -30 -111.5 -58.5t-148.5 -60.5l-6 14q78 29 176.5 78.5t240.5 130.5l-239 -719q-2 -6 -3 -11t-1 -13q0 -25 79 -26q20 -1 31 -1l-2 -18h-360zM279 -25l962 1385h62l-963 -1385h-61zM936 227l551 553 l12 -8l-477 -485h274l80 252l125 65l-98 -317h143l-18 -60h-146l-61 -204h100l-8 -23h-311l8 23h104l64 204h-342z" />
<glyph unicode="&#xbd;" horiz-adv-x="1583" d="M35 588l4 18q8 -1 16 -1.5t23 -0.5q47 0 68 14.5t40 71.5l193 582q-50 -30 -111.5 -58.5t-148.5 -60.5l-6 14q78 29 176.5 78.5t240.5 130.5l-239 -719q-2 -6 -3 -11t-1 -13q0 -25 79 -26q20 -1 31 -1l-2 -18h-360zM279 -25l962 1385h62l-963 -1385h-61zM934 0 q13 44 40 82.5t73 77.5q24 21 97 66.5t105 66.5q88 60 138.5 141.5t50.5 163.5q0 66 -45 106.5t-117 40.5q-69 0 -122.5 -36t-53.5 -80q0 -14 6 -24.5t24 -24.5q5 -5 16 -14q38 -34 38 -54q0 -17 -14 -29t-35 -12q-29 0 -48.5 31.5t-19.5 79.5q0 80 65.5 130t172.5 50 q110 0 179.5 -50.5t69.5 -129.5q0 -74 -48.5 -134.5t-172.5 -136.5q-30 -17 -91 -50q-175 -92 -236 -169h342q49 0 67.5 12t44.5 48l15 -7q-23 -34 -43.5 -70t-40.5 -75h-457z" />
<glyph unicode="&#xbe;" horiz-adv-x="1583" d="M8 705q0 41 27.5 69.5t66.5 28.5q28 0 46 -14.5t18 -36.5q0 -25 -18.5 -40.5t-49.5 -15.5q-2 0 -10.5 1t-15.5 1q-17 0 -24 -5t-7 -17q0 -31 46 -58.5t103 -27.5q45 0 81.5 18t64.5 54q25 32 43 92t18 116q0 73 -47 101t-178 28h-12l6 15q22 0 50 -2h9q125 0 185.5 53 t60.5 162q0 50 -30.5 78t-86.5 28q-55 0 -101 -25.5t-46 -52.5q0 -6 6 -10t23 -8q23 -5 34 -15.5t11 -27.5q0 -19 -18 -33t-42 -14q-27 0 -43 16t-16 43q0 61 59 102.5t152 41.5q91 0 148 -43.5t57 -112.5q0 -76 -67 -125.5t-192 -64.5q95 -16 147 -61t52 -112 q0 -108 -92 -183t-225 -75q-83 0 -138 38t-55 94zM279 -25l962 1385h62l-963 -1385h-61zM936 227l551 553l12 -8l-477 -485h274l80 252l125 65l-98 -317h143l-18 -60h-146l-61 -204h100l-8 -23h-311l8 23h104l64 204h-342z" />
<glyph unicode="&#xbf;" horiz-adv-x="920" d="M33 266q0 114 75 206t224 161q16 8 53 22q113 46 164 95q38 36 65 112q2 6 2 8l37 109l29 -8l-80 -248q-20 -62 -39.5 -106.5t-38.5 -69.5q-38 -50 -115 -77q-14 -5 -20 -7q-154 -59 -228.5 -127t-74.5 -150q0 -79 67 -133.5t166 -54.5q84 0 145.5 36.5t61.5 82.5 q0 26 -33 40q-14 5 -22 9q-24 13 -35.5 31.5t-11.5 44.5q0 33 21 53t57 20q43 0 68.5 -29.5t25.5 -80.5q0 -101 -78 -169.5t-192 -68.5q-136 0 -214.5 80.5t-78.5 218.5zM670 1290q0 39 25.5 64.5t64.5 25.5q38 0 65 -26.5t27 -63.5q0 -38 -27 -65t-65 -27t-64 26.5 t-26 65.5z" />
<glyph unicode="&#xc0;" horiz-adv-x="971" d="M-240 0v29q63 0 101.5 23.5t93.5 111.5l764 1220h31v-1355h124v-29h-471v29h162v458h-366l-219 -344q-17 -26 -23 -41.5t-6 -27.5q0 -22 27.5 -32t103.5 -14v-28h-322zM215 516h350v561zM544 1786q0 28 20.5 49t47.5 21q21 0 44 -15.5t42 -42.5l213 -301h-68l-243 203 q-32 26 -44 45t-12 41z" />
<glyph unicode="&#xc1;" horiz-adv-x="971" d="M-240 0v29q63 0 101.5 23.5t93.5 111.5l764 1220h31v-1355h124v-29h-471v29h162v458h-366l-219 -344q-17 -26 -23 -41.5t-6 -27.5q0 -22 27.5 -32t103.5 -14v-28h-322zM215 516h350v561zM598 1495l299 314q18 20 39.5 31.5t40.5 11.5q27 0 48 -21t21 -49q0 -22 -16 -41.5 t-53 -44.5l-308 -201h-71z" />
<glyph unicode="&#xc2;" horiz-adv-x="971" d="M-240 0v29q63 0 101.5 23.5t93.5 111.5l764 1220h31v-1355h124v-29h-471v29h162v458h-366l-219 -344q-17 -26 -23 -41.5t-6 -27.5q0 -22 27.5 -32t103.5 -14v-28h-322zM215 516h350v561zM452 1495l310 348h104l162 -348h-56l-176 207l-276 -207h-68z" />
<glyph unicode="&#xc3;" horiz-adv-x="971" d="M-240 0v29q63 0 101.5 23.5t93.5 111.5l764 1220h31v-1355h124v-29h-471v29h162v458h-366l-219 -344q-17 -26 -23 -41.5t-6 -27.5q0 -22 27.5 -32t103.5 -14v-28h-322zM215 516h350v561zM493 1553q16 93 58.5 138.5t113.5 45.5q22 0 40.5 -2.5t35.5 -7.5l129 -37 q21 -5 33.5 -6.5t23.5 -1.5q41 0 65.5 20t35.5 64h49q-19 -99 -63 -147t-117 -48q-18 0 -33 2t-29 6l-131 37q-24 6 -40 8t-29 2q-39 0 -62 -18.5t-31 -54.5h-49z" />
<glyph unicode="&#xc4;" horiz-adv-x="971" d="M-240 0v29q63 0 101.5 23.5t93.5 111.5l764 1220h31v-1355h124v-29h-471v29h162v458h-366l-219 -344q-17 -26 -23 -41.5t-6 -27.5q0 -22 27.5 -32t103.5 -14v-28h-322zM215 516h350v561zM495 1645q0 38 30 68t69 30q40 0 69 -29t29 -69q0 -44 -28 -72.5t-70 -28.5 q-41 0 -70 30t-29 71zM870 1645q0 38 30 68t68 30q40 0 69.5 -29t29.5 -69q0 -44 -28 -72.5t-71 -28.5q-40 0 -69 30t-29 71z" />
<glyph unicode="&#xc5;" horiz-adv-x="971" d="M-240 0v29q63 0 101.5 23.5t93.5 111.5l764 1220h31v-1355h124v-29h-471v29h162v458h-366l-219 -344q-17 -26 -23 -41.5t-6 -27.5q0 -22 27.5 -32t103.5 -14v-28h-322zM215 516h350v561zM522 1692q0 101 70 170t172 69q101 0 170.5 -69t69.5 -170q0 -102 -69.5 -172 t-170.5 -70t-171.5 70t-70.5 172zM598 1690q0 -70 48 -118t118 -48q69 0 118.5 48.5t49.5 117.5q0 70 -48.5 119t-119.5 49q-70 0 -118 -48.5t-48 -119.5z" />
<glyph unicode="&#xc6;" horiz-adv-x="1626" d="M-330 0l8 28q45 2 86 26.5t76 70.5l934 1202h-82l8 29h951l-70 -369h-29q1 2 1 6q3 42 3 64q0 133 -62 201.5t-183 68.5h-275l-162 -575h117q115 0 156.5 38t75.5 168h30l-139 -509h-29q18 66 26.5 109.5t8.5 59.5q0 49 -36 77t-99 28h-121l-188 -694h330 q160 0 274.5 104t151.5 283h28l-84 -416h-1052l8 29h153l127 463h-444l-272 -349q-23 -29 -33 -47.5t-10 -29.5q0 -19 24.5 -28t73.5 -9h26l-8 -29h-299zM190 520h431l233 807h-35z" />
<glyph unicode="&#xc7;" horiz-adv-x="1270" d="M55 547q0 169 64 319.5t190 280.5q115 118 241.5 178.5t256.5 60.5q60 0 111 -10.5t94 -32.5q25 -12 77.5 -46.5t79.5 -34.5q31 0 44.5 12.5t23.5 50.5h31l-99 -467h-30q10 45 15 79.5t5 63.5q0 156 -94 253.5t-242 97.5q-127 0 -222 -77t-183 -251q-80 -156 -124 -328.5 t-44 -326.5q0 -165 91 -263t245 -98q138 0 269 91.5t216 248.5l33 -16q-101 -180 -238 -269.5t-309 -89.5q-216 0 -359 162.5t-143 411.5zM277 -369l20 43q68 -27 128 -43t89 -16q52 0 79.5 28.5t27.5 82.5q0 49 -26.5 73.5t-78.5 24.5q-12 0 -27 -1.5t-32 -4.5l57 182h33 l-36 -135q19 3 37.5 4.5t33.5 1.5q94 0 146 -40t52 -112q0 -68 -62.5 -109.5t-166.5 -41.5q-55 0 -124 16t-150 47z" />
<glyph unicode="&#xc8;" horiz-adv-x="1165" d="M-145 0l8 29h153l361 1298h-154l8 29h951l-68 -369h-31q1 2 1 6q3 42 3 64q0 133 -62 201.5t-183 68.5h-275l-161 -575h116q115 0 156.5 38t75.5 168h30l-139 -509h-29q18 70 26.5 111t8.5 58q0 49 -36 77t-99 28h-121l-188 -694h330q160 0 274.5 104t151.5 283h28 l-84 -416h-1052zM563 1786q0 28 20.5 49t47.5 21q21 0 44 -15.5t42 -42.5l213 -301h-68l-243 203q-32 26 -44 45t-12 41z" />
<glyph unicode="&#xc9;" horiz-adv-x="1165" d="M-145 0l8 29h153l361 1298h-154l8 29h951l-68 -369h-31q1 2 1 6q3 42 3 64q0 133 -62 201.5t-183 68.5h-275l-161 -575h116q115 0 156.5 38t75.5 168h30l-139 -509h-29q18 70 26.5 111t8.5 58q0 49 -36 77t-99 28h-121l-188 -694h330q160 0 274.5 104t151.5 283h28 l-84 -416h-1052zM617 1495l299 314q18 20 39.5 31.5t40.5 11.5q27 0 48 -21t21 -49q0 -22 -16 -41.5t-53 -44.5l-308 -201h-71z" />
<glyph unicode="&#xca;" horiz-adv-x="1165" d="M-145 0l8 29h153l361 1298h-154l8 29h951l-68 -369h-31q1 2 1 6q3 42 3 64q0 133 -62 201.5t-183 68.5h-275l-161 -575h116q115 0 156.5 38t75.5 168h30l-139 -509h-29q18 70 26.5 111t8.5 58q0 49 -36 77t-99 28h-121l-188 -694h330q160 0 274.5 104t151.5 283h28 l-84 -416h-1052zM471 1495l310 348h104l162 -348h-56l-176 207l-276 -207h-68z" />
<glyph unicode="&#xcb;" horiz-adv-x="1165" d="M-145 0l8 29h153l361 1298h-154l8 29h951l-68 -369h-31q1 2 1 6q3 42 3 64q0 133 -62 201.5t-183 68.5h-275l-161 -575h116q115 0 156.5 38t75.5 168h30l-139 -509h-29q18 70 26.5 111t8.5 58q0 49 -36 77t-99 28h-121l-188 -694h330q160 0 274.5 104t151.5 283h28 l-84 -416h-1052zM514 1645q0 38 30 68t69 30q40 0 69 -29t29 -69q0 -44 -28 -72.5t-70 -28.5q-41 0 -70 30t-29 71zM889 1645q0 38 30 68t68 30q40 0 69.5 -29t29.5 -69q0 -44 -28 -72.5t-71 -28.5q-40 0 -69 30t-29 71z" />
<glyph unicode="&#xcc;" horiz-adv-x="578" d="M-147 0l6 29h153l361 1298h-154l8 29h512l-8 -29h-168l-358 -1298h166l-6 -29h-512zM297 1786q0 28 20.5 49t47.5 21q21 0 44 -15.5t42 -42.5l213 -301h-68l-243 203q-32 26 -44 45t-12 41z" />
<glyph unicode="&#xcd;" horiz-adv-x="578" d="M-147 0l6 29h153l361 1298h-154l8 29h512l-8 -29h-168l-358 -1298h166l-6 -29h-512zM351 1495l299 314q18 20 39.5 31.5t40.5 11.5q27 0 48 -21t21 -49q0 -22 -16 -41.5t-53 -44.5l-308 -201h-71z" />
<glyph unicode="&#xce;" horiz-adv-x="578" d="M-147 0l6 29h153l361 1298h-154l8 29h512l-8 -29h-168l-358 -1298h166l-6 -29h-512zM205 1495l310 348h104l162 -348h-56l-176 207l-276 -207h-68z" />
<glyph unicode="&#xcf;" horiz-adv-x="578" d="M-147 0l6 29h153l361 1298h-154l8 29h512l-8 -29h-168l-358 -1298h166l-6 -29h-512zM248 1645q0 38 30 68t69 30q40 0 69 -29t29 -69q0 -44 -28 -72.5t-70 -28.5q-41 0 -70 30t-29 71zM623 1645q0 38 30 68t68 30q40 0 69.5 -29t29.5 -69q0 -44 -28 -72.5t-71 -28.5 q-40 0 -69 30t-29 71z" />
<glyph unicode="&#xd0;" horiz-adv-x="1337" d="M-147 0l6 29h151l180 651h-192l14 53h193l166 594h-152l8 29h514q143 0 235 -34t161 -110q69 -77 105 -177t36 -216q0 -155 -58.5 -303t-168.5 -270q-118 -129 -254.5 -187.5t-323.5 -58.5h-620zM205 29h225q166 0 284.5 68.5t194.5 209.5q80 146 128 331.5t48 348.5 q0 178 -88 259t-280 81h-152l-164 -594h344l-14 -53h-344z" />
<glyph unicode="&#xd1;" horiz-adv-x="1251" d="M-178 0v29q92 0 130 27t68 137l318 1134h-176l8 29h365l405 -1120l272 966q1 2 2 6q7 31 7 47q0 38 -30.5 54.5t-112.5 21.5l5 25h349l-9 -23q-82 -6 -117 -28.5t-61 -112.5l-330 -1176l-79 -32l-476 1290l-313 -1114q-4 -15 -6 -29t-2 -27q0 -38 30.5 -55t104.5 -21v-28 h-352zM569 1553q16 93 58.5 138.5t113.5 45.5q22 0 40.5 -2.5t35.5 -7.5l129 -37q21 -5 33.5 -6.5t23.5 -1.5q41 0 65.5 20t35.5 64h49q-19 -99 -63 -147t-117 -48q-18 0 -33 2t-29 6l-131 37q-24 6 -40 8t-29 2q-39 0 -62 -18.5t-31 -54.5h-49z" />
<glyph unicode="&#xd2;" horiz-adv-x="1346" d="M55 526q0 145 53 290.5t150 266.5q118 149 254.5 225t284.5 76q218 0 355.5 -153.5t137.5 -399.5q0 -147 -52 -291.5t-151 -267.5q-117 -148 -254 -224.5t-284 -76.5q-219 0 -356.5 154t-137.5 401zM240 332q0 -162 81 -249t232 -87q104 0 188 55.5t146 165.5 q43 75 81.5 176.5t73.5 229.5q33 118 49.5 219.5t16.5 179.5q0 163 -81 250.5t-232 87.5q-104 0 -189.5 -56.5t-144.5 -164.5q-46 -80 -84.5 -181t-71.5 -225q-32 -119 -48.5 -220.5t-16.5 -180.5zM657 1786q0 28 20.5 49t47.5 21q21 0 44 -15.5t42 -42.5l213 -301h-68 l-243 203q-32 26 -44 45t-12 41z" />
<glyph unicode="&#xd3;" horiz-adv-x="1346" d="M55 526q0 145 53 290.5t150 266.5q118 149 254.5 225t284.5 76q218 0 355.5 -153.5t137.5 -399.5q0 -147 -52 -291.5t-151 -267.5q-117 -148 -254 -224.5t-284 -76.5q-219 0 -356.5 154t-137.5 401zM240 332q0 -162 81 -249t232 -87q104 0 188 55.5t146 165.5 q43 75 81.5 176.5t73.5 229.5q33 118 49.5 219.5t16.5 179.5q0 163 -81 250.5t-232 87.5q-104 0 -189.5 -56.5t-144.5 -164.5q-46 -80 -84.5 -181t-71.5 -225q-32 -119 -48.5 -220.5t-16.5 -180.5zM711 1495l299 314q18 20 39.5 31.5t40.5 11.5q27 0 48 -21t21 -49 q0 -22 -16 -41.5t-53 -44.5l-308 -201h-71z" />
<glyph unicode="&#xd4;" horiz-adv-x="1346" d="M55 526q0 145 53 290.5t150 266.5q118 149 254.5 225t284.5 76q218 0 355.5 -153.5t137.5 -399.5q0 -147 -52 -291.5t-151 -267.5q-117 -148 -254 -224.5t-284 -76.5q-219 0 -356.5 154t-137.5 401zM240 332q0 -162 81 -249t232 -87q104 0 188 55.5t146 165.5 q43 75 81.5 176.5t73.5 229.5q33 118 49.5 219.5t16.5 179.5q0 163 -81 250.5t-232 87.5q-104 0 -189.5 -56.5t-144.5 -164.5q-46 -80 -84.5 -181t-71.5 -225q-32 -119 -48.5 -220.5t-16.5 -180.5zM565 1495l310 348h104l162 -348h-56l-176 207l-276 -207h-68z" />
<glyph unicode="&#xd5;" horiz-adv-x="1346" d="M55 526q0 145 53 290.5t150 266.5q118 149 254.5 225t284.5 76q218 0 355.5 -153.5t137.5 -399.5q0 -147 -52 -291.5t-151 -267.5q-117 -148 -254 -224.5t-284 -76.5q-219 0 -356.5 154t-137.5 401zM240 332q0 -162 81 -249t232 -87q104 0 188 55.5t146 165.5 q43 75 81.5 176.5t73.5 229.5q33 118 49.5 219.5t16.5 179.5q0 163 -81 250.5t-232 87.5q-104 0 -189.5 -56.5t-144.5 -164.5q-46 -80 -84.5 -181t-71.5 -225q-32 -119 -48.5 -220.5t-16.5 -180.5zM606 1553q16 93 58.5 138.5t113.5 45.5q22 0 40.5 -2.5t35.5 -7.5l129 -37 q21 -5 33.5 -6.5t23.5 -1.5q41 0 65.5 20t35.5 64h49q-19 -99 -63 -147t-117 -48q-18 0 -33 2t-29 6l-131 37q-24 6 -40 8t-29 2q-39 0 -62 -18.5t-31 -54.5h-49z" />
<glyph unicode="&#xd6;" horiz-adv-x="1346" d="M55 526q0 145 53 290.5t150 266.5q118 149 254.5 225t284.5 76q218 0 355.5 -153.5t137.5 -399.5q0 -147 -52 -291.5t-151 -267.5q-117 -148 -254 -224.5t-284 -76.5q-219 0 -356.5 154t-137.5 401zM240 332q0 -162 81 -249t232 -87q104 0 188 55.5t146 165.5 q43 75 81.5 176.5t73.5 229.5q33 118 49.5 219.5t16.5 179.5q0 163 -81 250.5t-232 87.5q-104 0 -189.5 -56.5t-144.5 -164.5q-46 -80 -84.5 -181t-71.5 -225q-32 -119 -48.5 -220.5t-16.5 -180.5zM608 1645q0 38 30 68t69 30q40 0 69 -29t29 -69q0 -44 -28 -72.5t-70 -28.5 q-41 0 -70 30t-29 71zM983 1645q0 38 30 68t68 30q40 0 69.5 -29t29.5 -69q0 -44 -28 -72.5t-71 -28.5q-40 0 -69 30t-29 71z" />
<glyph unicode="&#xd7;" horiz-adv-x="1706" d="M301 135l475 475l-475 477l80 82l477 -477l475 477l82 -82l-475 -477l475 -475l-82 -82l-475 475l-477 -475z" />
<glyph unicode="&#xd8;" horiz-adv-x="1346" d="M55 522q0 148 53 294t150 267q118 149 259 226t294 77q90 0 163.5 -27.5t133.5 -84.5l98 133l29 -21l-96 -139q75 -73 113 -178t38 -238q0 -148 -52 -292t-151 -269q-114 -143 -253.5 -221t-280.5 -78q-85 0 -154 20.5t-123 61.5l-90 -123l-28 23l84 125 q-94 90 -140.5 201t-46.5 243zM246 338q0 -69 9 -117.5t30 -87.5l784 1081q-37 74 -100.5 111t-151.5 37q-119 0 -209.5 -61.5t-158.5 -188.5q-94 -171 -148.5 -380t-54.5 -394zM307 96q34 -48 98 -73t152 -25q127 0 220.5 83.5t174.5 270.5q34 79 62.5 171.5t50.5 193.5 q21 98 32 171.5t11 121.5q0 34 -6 75t-19 89z" />
<glyph unicode="&#xd9;" horiz-adv-x="1262" d="M35 285q0 29 7.5 73.5t23.5 102.5l239 866h-151l6 29h512l-6 -29h-168l-250 -899q-16 -56 -23.5 -103t-7.5 -89q0 -106 77 -168t208 -62q209 0 326 91.5t176 301.5l223 807q6 20 9 34t3 22q0 38 -24.5 51.5t-104.5 13.5h-39l10 29h373l-8 -29q-89 0 -124.5 -22.5 t-59.5 -110.5l-207 -745q-74 -271 -200 -374.5t-368 -103.5q-201 0 -326.5 88t-125.5 226zM673 1786q0 28 20.5 49t47.5 21q21 0 44 -15.5t42 -42.5l213 -301h-68l-243 203q-32 26 -44 45t-12 41z" />
<glyph unicode="&#xda;" horiz-adv-x="1262" d="M35 285q0 29 7.5 73.5t23.5 102.5l239 866h-151l6 29h512l-6 -29h-168l-250 -899q-16 -56 -23.5 -103t-7.5 -89q0 -106 77 -168t208 -62q209 0 326 91.5t176 301.5l223 807q6 20 9 34t3 22q0 38 -24.5 51.5t-104.5 13.5h-39l10 29h373l-8 -29q-89 0 -124.5 -22.5 t-59.5 -110.5l-207 -745q-74 -271 -200 -374.5t-368 -103.5q-201 0 -326.5 88t-125.5 226zM727 1495l299 314q18 20 39.5 31.5t40.5 11.5q27 0 48 -21t21 -49q0 -22 -16 -41.5t-53 -44.5l-308 -201h-71z" />
<glyph unicode="&#xdb;" horiz-adv-x="1262" d="M35 285q0 29 7.5 73.5t23.5 102.5l239 866h-151l6 29h512l-6 -29h-168l-250 -899q-16 -56 -23.5 -103t-7.5 -89q0 -106 77 -168t208 -62q209 0 326 91.5t176 301.5l223 807q6 20 9 34t3 22q0 38 -24.5 51.5t-104.5 13.5h-39l10 29h373l-8 -29q-89 0 -124.5 -22.5 t-59.5 -110.5l-207 -745q-74 -271 -200 -374.5t-368 -103.5q-201 0 -326.5 88t-125.5 226zM581 1495l310 348h104l162 -348h-56l-176 207l-276 -207h-68z" />
<glyph unicode="&#xdc;" horiz-adv-x="1262" d="M35 285q0 29 7.5 73.5t23.5 102.5l239 866h-151l6 29h512l-6 -29h-168l-250 -899q-16 -56 -23.5 -103t-7.5 -89q0 -106 77 -168t208 -62q209 0 326 91.5t176 301.5l223 807q6 20 9 34t3 22q0 38 -24.5 51.5t-104.5 13.5h-39l10 29h373l-8 -29q-89 0 -124.5 -22.5 t-59.5 -110.5l-207 -745q-74 -271 -200 -374.5t-368 -103.5q-201 0 -326.5 88t-125.5 226zM624 1645q0 38 30 68t69 30q40 0 69 -29t29 -69q0 -44 -28 -72.5t-70 -28.5q-41 0 -70 30t-29 71zM999 1645q0 38 30 68t68 30q40 0 69.5 -29t29.5 -69q0 -44 -28 -72.5t-71 -28.5 q-40 0 -69 30t-29 71z" />
<glyph unicode="&#xdd;" horiz-adv-x="883" d="M-47 0l8 29h156l151 542l-61 756h-135v29h481v-29h-164l60 -713l428 592q21 31 32 51t11 29q0 23 -19.5 33t-66.5 10q-7 0 -23.5 -1t-26.5 -1l9 29h288l-6 -29q-73 0 -125 -72q-5 -8 -8 -12l-493 -686l-136 -528h168l-6 -29h-522zM502 1495l299 314q18 20 39.5 31.5 t40.5 11.5q27 0 48 -21t21 -49q0 -22 -16 -41.5t-53 -44.5l-308 -201h-71z" />
<glyph unicode="&#xde;" horiz-adv-x="1090" d="M-156 0l9 29h153l359 1298h-152l6 29h514l-8 -29h-168l-80 -276h148q192 0 296.5 -82t104.5 -232q0 -70 -31.5 -141t-87.5 -125q-79 -76 -177.5 -107.5t-289.5 -31.5h-161l-82 -303h168l-9 -29h-512zM287 360h147q112 0 168.5 24.5t104.5 84.5q50 65 81 161.5t31 192.5 q0 109 -63 156t-213 47q-27 0 -43.5 -0.5t-30.5 -1.5z" />
<glyph unicode="&#xdf;" horiz-adv-x="991" d="M-461 -385q0 42 25.5 71t60.5 29q41 0 67.5 -26.5t26.5 -67.5q0 -19 -11 -40t-11 -23q0 -9 8.5 -17t20.5 -8q30 0 71 41t70 104q39 88 125 489q31 146 49 228q85 380 144.5 542.5t138.5 266.5q71 95 167 149t193 54q119 0 196.5 -69.5t77.5 -176.5q0 -67 -41.5 -128.5 t-121.5 -112.5q-20 -13 -56 -35q-194 -122 -194 -203q0 -58 141 -158q36 -25 55 -39q60 -42 86.5 -87t26.5 -103q0 -132 -99 -226t-239 -94q-105 0 -176.5 61t-71.5 150q0 52 29 85.5t74 33.5q38 0 64 -24.5t26 -61.5q0 -43 -47 -82.5t-47 -56.5q0 -30 39 -51t98 -21 q95 0 164 55t69 130q0 87 -163 202l-15 11q-87 60 -114 95.5t-27 76.5q0 58 39 117t118 118q15 11 42 31q260 194 260 348q0 83 -53 133.5t-140 50.5q-81 0 -136.5 -37.5t-103.5 -126.5q-61 -117 -150 -478q-37 -149 -58 -230q-154 -577 -275.5 -794.5t-273.5 -217.5 q-65 0 -106.5 34.5t-41.5 88.5z" />
<glyph unicode="&#xe0;" horiz-adv-x="963" d="M-29 311q0 91 26 173.5t75 148.5q70 96 169.5 151.5t200.5 55.5q91 0 145.5 -44t67.5 -128l45 147h156l-180 -633q-11 -36 -17 -63.5t-6 -40.5q0 -24 13 -41t30 -17q31 0 80 48t103 131l24 -17q-78 -118 -135.5 -162.5t-126.5 -44.5q-55 0 -89.5 33.5t-49.5 102.5 q-60 -66 -122 -98.5t-128 -32.5q-125 0 -203 91t-78 240zM119 209q0 -95 37 -147t106 -52q90 0 169 74t114 195l77 267q6 21 8.5 40.5t2.5 36.5q0 79 -44 130.5t-112 51.5q-77 0 -140.5 -49.5t-115.5 -149.5q-46 -88 -74 -197.5t-28 -199.5zM329 1241q0 28 20.5 49t47.5 21 q21 0 44 -15.5t42 -42.5l213 -301h-68l-243 203q-32 26 -44 45t-12 41z" />
<glyph unicode="&#xe1;" horiz-adv-x="963" d="M-29 311q0 91 26 173.5t75 148.5q70 96 169.5 151.5t200.5 55.5q91 0 145.5 -44t67.5 -128l45 147h156l-180 -633q-11 -36 -17 -63.5t-6 -40.5q0 -24 13 -41t30 -17q31 0 80 48t103 131l24 -17q-78 -118 -135.5 -162.5t-126.5 -44.5q-55 0 -89.5 33.5t-49.5 102.5 q-60 -66 -122 -98.5t-128 -32.5q-125 0 -203 91t-78 240zM119 209q0 -95 37 -147t106 -52q90 0 169 74t114 195l77 267q6 21 8.5 40.5t2.5 36.5q0 79 -44 130.5t-112 51.5q-77 0 -140.5 -49.5t-115.5 -149.5q-46 -88 -74 -197.5t-28 -199.5zM383 950l299 314 q18 20 39.5 31.5t40.5 11.5q27 0 48 -21t21 -49q0 -22 -16 -41.5t-53 -44.5l-308 -201h-71z" />
<glyph unicode="&#xe2;" horiz-adv-x="963" d="M-29 311q0 91 26 173.5t75 148.5q70 96 169.5 151.5t200.5 55.5q91 0 145.5 -44t67.5 -128l45 147h156l-180 -633q-11 -36 -17 -63.5t-6 -40.5q0 -24 13 -41t30 -17q31 0 80 48t103 131l24 -17q-78 -118 -135.5 -162.5t-126.5 -44.5q-55 0 -89.5 33.5t-49.5 102.5 q-60 -66 -122 -98.5t-128 -32.5q-125 0 -203 91t-78 240zM119 209q0 -95 37 -147t106 -52q90 0 169 74t114 195l77 267q6 21 8.5 40.5t2.5 36.5q0 79 -44 130.5t-112 51.5q-77 0 -140.5 -49.5t-115.5 -149.5q-46 -88 -74 -197.5t-28 -199.5zM237 950l310 348h104l162 -348 h-56l-176 207l-276 -207h-68z" />
<glyph unicode="&#xe3;" horiz-adv-x="963" d="M-29 311q0 91 26 173.5t75 148.5q70 96 169.5 151.5t200.5 55.5q91 0 145.5 -44t67.5 -128l45 147h156l-180 -633q-11 -36 -17 -63.5t-6 -40.5q0 -24 13 -41t30 -17q31 0 80 48t103 131l24 -17q-78 -118 -135.5 -162.5t-126.5 -44.5q-55 0 -89.5 33.5t-49.5 102.5 q-60 -66 -122 -98.5t-128 -32.5q-125 0 -203 91t-78 240zM119 209q0 -95 37 -147t106 -52q90 0 169 74t114 195l77 267q6 21 8.5 40.5t2.5 36.5q0 79 -44 130.5t-112 51.5q-77 0 -140.5 -49.5t-115.5 -149.5q-46 -88 -74 -197.5t-28 -199.5zM278 1008q16 93 58.5 138.5 t113.5 45.5q22 0 40.5 -2.5t35.5 -7.5l129 -37q21 -5 33.5 -6.5t23.5 -1.5q41 0 65.5 20t35.5 64h49q-19 -99 -63 -147t-117 -48q-18 0 -33 2t-29 6l-131 37q-24 6 -40 8t-29 2q-39 0 -62 -18.5t-31 -54.5h-49z" />
<glyph unicode="&#xe4;" horiz-adv-x="963" d="M-29 311q0 91 26 173.5t75 148.5q70 96 169.5 151.5t200.5 55.5q91 0 145.5 -44t67.5 -128l45 147h156l-180 -633q-11 -36 -17 -63.5t-6 -40.5q0 -24 13 -41t30 -17q31 0 80 48t103 131l24 -17q-78 -118 -135.5 -162.5t-126.5 -44.5q-55 0 -89.5 33.5t-49.5 102.5 q-60 -66 -122 -98.5t-128 -32.5q-125 0 -203 91t-78 240zM119 209q0 -95 37 -147t106 -52q90 0 169 74t114 195l77 267q6 21 8.5 40.5t2.5 36.5q0 79 -44 130.5t-112 51.5q-77 0 -140.5 -49.5t-115.5 -149.5q-46 -88 -74 -197.5t-28 -199.5zM280 1100q0 38 30 68t69 30 q40 0 69 -29t29 -69q0 -44 -28 -72.5t-70 -28.5q-41 0 -70 30t-29 71zM655 1100q0 38 30 68t68 30q40 0 69.5 -29t29.5 -69q0 -44 -28 -72.5t-71 -28.5q-40 0 -69 30t-29 71z" />
<glyph unicode="&#xe5;" horiz-adv-x="963" d="M-29 311q0 91 26 173.5t75 148.5q70 96 169.5 151.5t200.5 55.5q91 0 145.5 -44t67.5 -128l45 147h156l-180 -633q-11 -36 -17 -63.5t-6 -40.5q0 -24 13 -41t30 -17q31 0 80 48t103 131l24 -17q-78 -118 -135.5 -162.5t-126.5 -44.5q-55 0 -89.5 33.5t-49.5 102.5 q-60 -66 -122 -98.5t-128 -32.5q-125 0 -203 91t-78 240zM119 209q0 -95 37 -147t106 -52q90 0 169 74t114 195l77 267q6 21 8.5 40.5t2.5 36.5q0 79 -44 130.5t-112 51.5q-77 0 -140.5 -49.5t-115.5 -149.5q-46 -88 -74 -197.5t-28 -199.5zM307 1147q0 101 70 170t172 69 q101 0 170 -69t69 -170q0 -102 -69 -172t-170 -70q-102 0 -172 70.5t-70 171.5zM383 1145q0 -70 49 -118t119 -48q69 0 117.5 48.5t48.5 117.5q0 70 -48.5 119t-117.5 49q-71 0 -119.5 -49t-48.5 -119z" />
<glyph unicode="&#xe6;" horiz-adv-x="1229" d="M-51 211q0 127 114 201.5t312 74.5q28 0 104 -5q20 -2 31 -3q12 45 18.5 85.5t6.5 74.5q0 90 -41.5 133t-126.5 43q-63 0 -107.5 -23.5t-44.5 -54.5q0 -4 22.5 -37t22.5 -63q0 -35 -21 -56.5t-57 -21.5q-39 0 -64.5 24.5t-25.5 63.5q0 81 79.5 137t197.5 56 q100 0 169 -40.5t107 -121.5q61 79 134.5 120.5t152.5 41.5q89 0 146 -51.5t57 -131.5q0 -101 -83.5 -172t-205.5 -71q-31 0 -82 5t-119 15q-24 -109 -32.5 -160.5t-8.5 -85.5q0 -83 40.5 -130.5t111.5 -47.5q86 0 166.5 58t136.5 161l26 -16q-65 -116 -153.5 -176 t-196.5 -60q-87 0 -150 34t-93 98q-57 -68 -125.5 -100t-157.5 -32q-109 0 -184.5 68.5t-75.5 165.5zM98 147q0 -63 38 -102t97 -39q88 0 150.5 102.5t119.5 346.5q-24 3 -45.5 4.5t-39.5 1.5q-152 0 -236 -82.5t-84 -231.5zM654 463q42 -7 76.5 -10.5t62.5 -3.5 q106 0 161.5 67.5t55.5 198.5q0 49 -23.5 72.5t-71.5 23.5q-78 0 -147 -91t-114 -257z" />
<glyph unicode="&#xe7;" horiz-adv-x="735" d="M-6 291q0 104 41 205t119 186q73 79 151.5 118.5t165.5 39.5q90 0 143.5 -39t53.5 -103q0 -41 -28 -67.5t-71 -26.5q-36 0 -63 27t-27 63q0 59 40 96q5 5 5 7q0 6 -14 10t-39 4q-56 0 -103 -35.5t-83 -105.5q-24 -45 -44.5 -100t-37.5 -121q-24 -92 -36.5 -165.5 t-12.5 -119.5q0 -71 32 -108.5t93 -37.5q92 0 172 72t145 213l29 -16q-63 -148 -156 -229t-199 -81q-115 0 -195.5 91t-80.5 223zM7 -369l20 43q68 -27 128 -43t89 -16q52 0 79.5 28.5t27.5 82.5q0 49 -26.5 73.5t-78.5 24.5q-12 0 -27 -1.5t-32 -4.5l57 182h33l-36 -135 q19 3 37.5 4.5t33.5 1.5q94 0 146 -40t52 -112q0 -68 -62.5 -109.5t-166.5 -41.5q-55 0 -124 16t-150 47z" />
<glyph unicode="&#xe8;" horiz-adv-x="711" d="M-18 313q0 86 40 178.5t113 176.5q72 82 153.5 127t157.5 45q88 0 139.5 -48t51.5 -128q0 -102 -91 -175t-218 -73q-33 0 -72.5 6t-83.5 18q-23 -94 -34 -158t-11 -106q0 -76 40 -120t109 -44q76 0 147.5 54.5t133.5 158.5l25 -14q-66 -114 -148.5 -172.5t-177.5 -58.5 q-119 0 -196.5 94t-77.5 239zM178 471q33 -11 65 -16.5t60 -5.5q89 0 148 74t59 188q0 48 -22 74t-64 26q-73 0 -137 -88t-109 -252zM245 1241q0 28 20.5 49t47.5 21q21 0 44 -15.5t42 -42.5l213 -301h-68l-243 203q-32 26 -44 45t-12 41z" />
<glyph unicode="&#xe9;" horiz-adv-x="711" d="M-18 313q0 86 40 178.5t113 176.5q72 82 153.5 127t157.5 45q88 0 139.5 -48t51.5 -128q0 -102 -91 -175t-218 -73q-33 0 -72.5 6t-83.5 18q-23 -94 -34 -158t-11 -106q0 -76 40 -120t109 -44q76 0 147.5 54.5t133.5 158.5l25 -14q-66 -114 -148.5 -172.5t-177.5 -58.5 q-119 0 -196.5 94t-77.5 239zM178 471q33 -11 65 -16.5t60 -5.5q89 0 148 74t59 188q0 48 -22 74t-64 26q-73 0 -137 -88t-109 -252zM299 950l299 314q18 20 39.5 31.5t40.5 11.5q27 0 48 -21t21 -49q0 -22 -16 -41.5t-53 -44.5l-308 -201h-71z" />
<glyph unicode="&#xea;" horiz-adv-x="711" d="M-18 313q0 86 40 178.5t113 176.5q72 82 153.5 127t157.5 45q88 0 139.5 -48t51.5 -128q0 -102 -91 -175t-218 -73q-33 0 -72.5 6t-83.5 18q-23 -94 -34 -158t-11 -106q0 -76 40 -120t109 -44q76 0 147.5 54.5t133.5 158.5l25 -14q-66 -114 -148.5 -172.5t-177.5 -58.5 q-119 0 -196.5 94t-77.5 239zM153 950l310 348h104l162 -348h-56l-176 207l-276 -207h-68zM178 471q33 -11 65 -16.5t60 -5.5q89 0 148 74t59 188q0 48 -22 74t-64 26q-73 0 -137 -88t-109 -252z" />
<glyph unicode="&#xeb;" horiz-adv-x="711" d="M-18 313q0 86 40 178.5t113 176.5q72 82 153.5 127t157.5 45q88 0 139.5 -48t51.5 -128q0 -102 -91 -175t-218 -73q-33 0 -72.5 6t-83.5 18q-23 -94 -34 -158t-11 -106q0 -76 40 -120t109 -44q76 0 147.5 54.5t133.5 158.5l25 -14q-66 -114 -148.5 -172.5t-177.5 -58.5 q-119 0 -196.5 94t-77.5 239zM178 471q33 -11 65 -16.5t60 -5.5q89 0 148 74t59 188q0 48 -22 74t-64 26q-73 0 -137 -88t-109 -252zM196 1100q0 38 30 68t69 30q40 0 69 -29t29 -69q0 -44 -28 -72.5t-70 -28.5q-41 0 -70 30t-29 71zM571 1100q0 38 30 68t68 30 q40 0 69.5 -29t29.5 -69q0 -44 -28 -72.5t-71 -28.5q-40 0 -69 30t-29 71z" />
<glyph unicode="&#xec;" horiz-adv-x="508" d="M6 115q0 23 6.5 54.5t26.5 94.5l160 522h-123l8 29h80q71 0 118.5 6t90.5 19l-195 -645q-11 -34 -16.5 -62t-5.5 -45q0 -27 13.5 -41t39.5 -14q35 0 79 33.5t128 128.5l20 -17q-86 -105 -155 -151.5t-138 -46.5q-63 0 -100 36t-37 99zM102 1241q0 28 20.5 49t47.5 21 q21 0 44 -15.5t42 -42.5l213 -301h-68l-243 203q-32 26 -44 45t-12 41z" />
<glyph unicode="&#xed;" horiz-adv-x="508" d="M6 115q0 23 6.5 54.5t26.5 94.5l160 522h-123l8 29h80q71 0 118.5 6t90.5 19l-195 -645q-11 -34 -16.5 -62t-5.5 -45q0 -27 13.5 -41t39.5 -14q35 0 79 33.5t128 128.5l20 -17q-86 -105 -155 -151.5t-138 -46.5q-63 0 -100 36t-37 99zM156 950l299 314q18 20 39.5 31.5 t40.5 11.5q27 0 48 -21t21 -49q0 -22 -16 -41.5t-53 -44.5l-308 -201h-71z" />
<glyph unicode="&#xee;" horiz-adv-x="508" d="M6 115q0 23 6.5 54.5t26.5 94.5l160 522h-123l8 29h80q71 0 118.5 6t90.5 19l-195 -645q-11 -34 -16.5 -62t-5.5 -45q0 -27 13.5 -41t39.5 -14q35 0 79 33.5t128 128.5l20 -17q-86 -105 -155 -151.5t-138 -46.5q-63 0 -100 36t-37 99zM10 950l310 348h104l162 -348h-56 l-176 207l-276 -207h-68z" />
<glyph unicode="&#xef;" horiz-adv-x="508" d="M6 115q0 23 6.5 54.5t26.5 94.5l160 522h-123l8 29h80q71 0 118.5 6t90.5 19l-195 -645q-11 -34 -16.5 -62t-5.5 -45q0 -27 13.5 -41t39.5 -14q35 0 79 33.5t128 128.5l20 -17q-86 -105 -155 -151.5t-138 -46.5q-63 0 -100 36t-37 99zM53 1100q0 38 30 68t69 30 q40 0 69 -29t29 -69q0 -44 -28 -72.5t-70 -28.5q-41 0 -70 30t-29 71zM428 1100q0 38 30 68t68 30q40 0 69.5 -29t29.5 -69q0 -44 -28 -72.5t-71 -28.5q-40 0 -69 30t-29 71z" />
<glyph unicode="&#xf0;" horiz-adv-x="891" d="M-20 315q0 112 50.5 219t143.5 191q65 59 132 87t143 28q52 0 92.5 -14t74.5 -43q-3 75 -20.5 153.5t-50.5 163.5l-289 -76l-14 49l280 76q-33 67 -70.5 123.5t-80.5 105.5l35 31q62 -54 113 -113t91 -125l269 80l14 -55l-256 -70q68 -127 101.5 -251t33.5 -250 q0 -285 -136.5 -467.5t-340.5 -182.5q-143 0 -229 93.5t-86 246.5zM121 188q0 -90 43 -138t125 -48q66 0 119 47t102 150q51 107 82 227.5t31 206.5q0 92 -41 137t-125 45q-68 0 -118.5 -45t-102.5 -154q-52 -105 -83.5 -226.5t-31.5 -201.5z" />
<glyph unicode="&#xf1;" horiz-adv-x="1014" d="M-57 0l239 786h-121l9 29h77q72 0 120.5 6t90.5 19l-77 -254q99 127 197.5 190.5t195.5 63.5q80 0 127 -42.5t47 -115.5q0 -21 -6 -50t-19 -69l-123 -381l-1 -5q-23 -75 -23 -95q0 -26 12.5 -44t30.5 -18q31 0 81 48t103 131l25 -19q-75 -114 -133 -159.5t-125 -45.5 q-63 0 -97 38t-34 106q0 22 4.5 47t13.5 55l127 398l6 18q21 68 21 102q0 31 -18 47.5t-52 16.5q-39 0 -91.5 -24.5t-109.5 -69.5q-80 -64 -136 -144.5t-85 -175.5l-119 -389h-157zM305 1008q16 93 58.5 138.5t113.5 45.5q22 0 40.5 -2.5t35.5 -7.5l129 -37q21 -5 33.5 -6.5 t23.5 -1.5q41 0 65.5 20t35.5 64h49q-19 -99 -63 -147t-117 -48q-18 0 -33 2t-29 6l-131 37q-24 6 -40 8t-29 2q-39 0 -62 -18.5t-31 -54.5h-49z" />
<glyph unicode="&#xf2;" horiz-adv-x="891" d="M-20 317q0 89 33 177t93 161q82 98 167.5 141.5t193.5 43.5q134 0 215.5 -92.5t81.5 -245.5q0 -93 -32.5 -180.5t-94.5 -161.5q-77 -93 -162 -139t-180 -46q-142 0 -228.5 94t-86.5 248zM121 188q0 -90 43 -138t125 -48q66 0 119 47t102 150q51 107 82 227.5t31 206.5 q0 92 -41 137t-125 45q-69 0 -121 -46.5t-100 -152.5q-53 -110 -84 -229.5t-31 -198.5zM294 1241q0 28 20.5 49t47.5 21q21 0 44 -15.5t42 -42.5l213 -301h-68l-243 203q-32 26 -44 45t-12 41z" />
<glyph unicode="&#xf3;" horiz-adv-x="891" d="M-20 317q0 89 33 177t93 161q82 98 167.5 141.5t193.5 43.5q134 0 215.5 -92.5t81.5 -245.5q0 -93 -32.5 -180.5t-94.5 -161.5q-77 -93 -162 -139t-180 -46q-142 0 -228.5 94t-86.5 248zM121 188q0 -90 43 -138t125 -48q66 0 119 47t102 150q51 107 82 227.5t31 206.5 q0 92 -41 137t-125 45q-69 0 -121 -46.5t-100 -152.5q-53 -110 -84 -229.5t-31 -198.5zM348 950l299 314q18 20 39.5 31.5t40.5 11.5q27 0 48 -21t21 -49q0 -22 -16 -41.5t-53 -44.5l-308 -201h-71z" />
<glyph unicode="&#xf4;" horiz-adv-x="891" d="M-20 317q0 89 33 177t93 161q82 98 167.5 141.5t193.5 43.5q134 0 215.5 -92.5t81.5 -245.5q0 -93 -32.5 -180.5t-94.5 -161.5q-77 -93 -162 -139t-180 -46q-142 0 -228.5 94t-86.5 248zM121 188q0 -90 43 -138t125 -48q66 0 119 47t102 150q51 107 82 227.5t31 206.5 q0 92 -41 137t-125 45q-69 0 -121 -46.5t-100 -152.5q-53 -110 -84 -229.5t-31 -198.5zM202 950l310 348h104l162 -348h-56l-176 207l-276 -207h-68z" />
<glyph unicode="&#xf5;" horiz-adv-x="891" d="M-20 317q0 89 33 177t93 161q82 98 167.5 141.5t193.5 43.5q134 0 215.5 -92.5t81.5 -245.5q0 -93 -32.5 -180.5t-94.5 -161.5q-77 -93 -162 -139t-180 -46q-142 0 -228.5 94t-86.5 248zM121 188q0 -90 43 -138t125 -48q66 0 119 47t102 150q51 107 82 227.5t31 206.5 q0 92 -41 137t-125 45q-69 0 -121 -46.5t-100 -152.5q-53 -110 -84 -229.5t-31 -198.5zM243 1008q16 93 58.5 138.5t113.5 45.5q22 0 40.5 -2.5t35.5 -7.5l129 -37q21 -5 33.5 -6.5t23.5 -1.5q41 0 65.5 20t35.5 64h49q-19 -99 -63 -147t-117 -48q-18 0 -33 2t-29 6l-131 37 q-24 6 -40 8t-29 2q-39 0 -62 -18.5t-31 -54.5h-49z" />
<glyph unicode="&#xf6;" horiz-adv-x="891" d="M-20 317q0 89 33 177t93 161q82 98 167.5 141.5t193.5 43.5q134 0 215.5 -92.5t81.5 -245.5q0 -93 -32.5 -180.5t-94.5 -161.5q-77 -93 -162 -139t-180 -46q-142 0 -228.5 94t-86.5 248zM121 188q0 -90 43 -138t125 -48q66 0 119 47t102 150q51 107 82 227.5t31 206.5 q0 92 -41 137t-125 45q-69 0 -121 -46.5t-100 -152.5q-53 -110 -84 -229.5t-31 -198.5zM245 1100q0 38 30 68t69 30q40 0 69 -29t29 -69q0 -44 -28 -72.5t-70 -28.5q-41 0 -70 30t-29 71zM620 1100q0 38 30 68t68 30q40 0 69.5 -29t29.5 -69q0 -44 -28 -72.5t-71 -28.5 q-40 0 -69 30t-29 71z" />
<glyph unicode="&#xf7;" horiz-adv-x="1706" d="M254 553v117h1198v-117h-1198zM739 250q0 48 34 81.5t81 33.5t81 -34t34 -81t-33.5 -81t-81.5 -34t-81.5 33.5t-33.5 81.5zM739 971q0 47 34 80.5t81 33.5q48 0 81.5 -33.5t33.5 -80.5q0 -48 -33.5 -81.5t-81.5 -33.5q-49 0 -82 33.5t-33 81.5z" />
<glyph unicode="&#xf8;" horiz-adv-x="891" d="M-20 324q0 86 30.5 168.5t91.5 158.5q78 97 165.5 144t189.5 47q47 0 91 -13t87 -41l65 89l31 -17l-67 -90q50 -58 75 -124.5t25 -143.5q0 -88 -31.5 -173t-91.5 -159q-78 -97 -164.5 -145t-181.5 -48q-55 0 -99 11.5t-81 36.5l-62 -82l-30 18l63 88q-54 55 -80 122 t-26 153zM119 193q0 -22 2 -45t6 -46l471 641q-17 37 -52 54.5t-89 17.5q-69 0 -122.5 -47.5t-101.5 -151.5q-52 -113 -83 -230t-31 -193zM150 72q20 -34 56 -52t83 -18q68 0 122.5 50.5t102.5 158.5q52 113 80.5 223.5t28.5 196.5q0 17 -2 35t-7 40z" />
<glyph unicode="&#xf9;" horiz-adv-x="948" d="M-23 125q0 18 7 53t18 72l166 536h-121l8 29h78q72 0 120 6t91 19l-201 -656q-8 -27 -13 -51t-5 -37q0 -29 18.5 -47t49.5 -18q27 0 59.5 16.5t77.5 52.5q89 73 139.5 144.5t81.5 167.5l129 403h156l-199 -629q-12 -38 -18.5 -65.5t-6.5 -40.5q0 -21 13 -37t30 -16 q32 0 80 46t103 130l22 -17q-62 -102 -126.5 -153t-129.5 -51q-63 0 -98 37t-35 104q0 20 4.5 45.5t13.5 56.5q-89 -119 -181 -181t-179 -62q-69 0 -110.5 39t-41.5 104zM333 1241q0 28 20.5 49t47.5 21q21 0 44 -15.5t42 -42.5l213 -301h-68l-243 203q-32 26 -44 45t-12 41 z" />
<glyph unicode="&#xfa;" horiz-adv-x="948" d="M-23 125q0 18 7 53t18 72l166 536h-121l8 29h78q72 0 120 6t91 19l-201 -656q-8 -27 -13 -51t-5 -37q0 -29 18.5 -47t49.5 -18q27 0 59.5 16.5t77.5 52.5q89 73 139.5 144.5t81.5 167.5l129 403h156l-199 -629q-12 -38 -18.5 -65.5t-6.5 -40.5q0 -21 13 -37t30 -16 q32 0 80 46t103 130l22 -17q-62 -102 -126.5 -153t-129.5 -51q-63 0 -98 37t-35 104q0 20 4.5 45.5t13.5 56.5q-89 -119 -181 -181t-179 -62q-69 0 -110.5 39t-41.5 104zM387 950l299 314q18 20 39.5 31.5t40.5 11.5q27 0 48 -21t21 -49q0 -22 -16 -41.5t-53 -44.5 l-308 -201h-71z" />
<glyph unicode="&#xfb;" horiz-adv-x="948" d="M-23 125q0 18 7 53t18 72l166 536h-121l8 29h78q72 0 120 6t91 19l-201 -656q-8 -27 -13 -51t-5 -37q0 -29 18.5 -47t49.5 -18q27 0 59.5 16.5t77.5 52.5q89 73 139.5 144.5t81.5 167.5l129 403h156l-199 -629q-12 -38 -18.5 -65.5t-6.5 -40.5q0 -21 13 -37t30 -16 q32 0 80 46t103 130l22 -17q-62 -102 -126.5 -153t-129.5 -51q-63 0 -98 37t-35 104q0 20 4.5 45.5t13.5 56.5q-89 -119 -181 -181t-179 -62q-69 0 -110.5 39t-41.5 104zM241 950l310 348h104l162 -348h-56l-176 207l-276 -207h-68z" />
<glyph unicode="&#xfc;" horiz-adv-x="948" d="M-23 125q0 18 7 53t18 72l166 536h-121l8 29h78q72 0 120 6t91 19l-201 -656q-8 -27 -13 -51t-5 -37q0 -29 18.5 -47t49.5 -18q27 0 59.5 16.5t77.5 52.5q89 73 139.5 144.5t81.5 167.5l129 403h156l-199 -629q-12 -38 -18.5 -65.5t-6.5 -40.5q0 -21 13 -37t30 -16 q32 0 80 46t103 130l22 -17q-62 -102 -126.5 -153t-129.5 -51q-63 0 -98 37t-35 104q0 20 4.5 45.5t13.5 56.5q-89 -119 -181 -181t-179 -62q-69 0 -110.5 39t-41.5 104zM284 1100q0 38 30 68t69 30q40 0 69 -29t29 -69q0 -44 -28 -72.5t-70 -28.5q-41 0 -70 30t-29 71z M659 1100q0 38 30 68t68 30q40 0 69.5 -29t29.5 -69q0 -44 -28 -72.5t-71 -28.5q-40 0 -69 30t-29 71z" />
<glyph unicode="&#xfd;" horiz-adv-x="924" d="M-303 -391q0 48 28 80t70 32q39 0 61.5 -23.5t22.5 -66.5q0 -39 -36 -77q-7 -7 -7 -9q0 -5 9.5 -7.5t31.5 -2.5q88 0 191.5 109.5t210.5 314.5l-78 678q-7 61 -21.5 87t-42.5 26q-23 0 -61 -47.5t-82 -133.5l-31 13q62 131 125.5 193.5t134.5 62.5q58 0 91 -36t40 -108 l56 -506l221 424q59 114 114.5 171t104.5 57q44 0 72 -26.5t28 -68.5q0 -41 -24 -67.5t-62 -26.5q-36 0 -58 19.5t-22 50.5q0 11 6.5 27.5t6.5 21.5q0 2 -1.5 4t-2.5 2q-17 0 -59 -57t-89 -146l-223 -421q-209 -400 -332 -530t-260 -130q-58 0 -95.5 33t-37.5 84zM365 950 l299 314q18 20 39.5 31.5t40.5 11.5q27 0 48 -21t21 -49q0 -22 -16 -41.5t-53 -44.5l-308 -201h-71z" />
<glyph unicode="&#xfe;" horiz-adv-x="977" d="M-266 -494l8 29h113l481 1792h-121l8 29h49q76 0 135 12.5t107 38.5l-195 -729q62 81 130.5 122.5t142.5 41.5q125 0 202.5 -92.5t77.5 -241.5q0 -91 -25.5 -173.5t-74.5 -148.5q-70 -95 -169.5 -149.5t-201.5 -54.5q-99 0 -158 55.5t-59 148.5l-174 -651h117l-6 -29 h-387zM211 199q0 -81 43.5 -133t112.5 -52q76 0 139.5 49.5t116.5 149.5q46 88 74 197.5t28 199.5q0 95 -38 147t-105 52q-90 0 -170.5 -73.5t-114.5 -192.5l-76 -269q-5 -21 -7.5 -39.5t-2.5 -35.5z" />
<glyph unicode="&#xff;" horiz-adv-x="924" d="M-303 -391q0 48 28 80t70 32q39 0 61.5 -23.5t22.5 -66.5q0 -39 -36 -77q-7 -7 -7 -9q0 -5 9.5 -7.5t31.5 -2.5q88 0 191.5 109.5t210.5 314.5l-78 678q-7 61 -21.5 87t-42.5 26q-23 0 -61 -47.5t-82 -133.5l-31 13q62 131 125.5 193.5t134.5 62.5q58 0 91 -36t40 -108 l56 -506l221 424q59 114 114.5 171t104.5 57q44 0 72 -26.5t28 -68.5q0 -41 -24 -67.5t-62 -26.5q-36 0 -58 19.5t-22 50.5q0 11 6.5 27.5t6.5 21.5q0 2 -1.5 4t-2.5 2q-17 0 -59 -57t-89 -146l-223 -421q-209 -400 -332 -530t-260 -130q-58 0 -95.5 33t-37.5 84zM262 1100 q0 38 30 68t69 30q40 0 69 -29t29 -69q0 -44 -28 -72.5t-70 -28.5q-41 0 -70 30t-29 71zM637 1100q0 38 30 68t68 30q40 0 69.5 -29t29.5 -69q0 -44 -28 -72.5t-71 -28.5q-40 0 -69 30t-29 71z" />
<glyph unicode="&#x152;" horiz-adv-x="1896" d="M47 508q0 159 62 317.5t176 288.5q117 134 257 194t337 60q77 0 206.5 -6t180.5 -6h669l-67 -369h-31q0 2 1 6q3 42 3 64q0 133 -62 201.5t-184 68.5h-272l-164 -575h117q114 0 156 38.5t75 167.5h31l-137 -509h-29q16 61 24.5 105.5t8.5 63.5q0 49 -36 77t-99 28h-119 l-190 -694h329q160 0 275 104t151 283h29l-84 -416h-756q-86 0 -192 -3t-125 -3q-258 0 -399.5 134.5t-141.5 379.5zM240 354q0 -168 85 -248.5t263 -80.5q117 0 158 34t79 170l262 928q8 28 12.5 53.5t4.5 44.5q0 45 -42 64.5t-140 19.5q-174 0 -284.5 -61.5t-199.5 -206.5 q-87 -144 -142.5 -344.5t-55.5 -372.5z" />
<glyph unicode="&#x153;" horiz-adv-x="1208" d="M-23 319q0 91 31.5 179t89.5 164q67 86 152.5 132t179.5 46q85 0 146.5 -40t97.5 -116q65 74 142 115t151 41q87 0 138.5 -48t51.5 -128q0 -102 -91 -175t-218 -73q-32 0 -70.5 6t-83.5 18q-23 -94 -34 -158t-11 -106q0 -77 39.5 -120.5t108.5 -43.5q75 0 148 55t134 158 l25 -14q-65 -114 -148 -172.5t-178 -58.5q-73 0 -131.5 36.5t-99.5 108.5q-54 -71 -127.5 -109.5t-155.5 -38.5q-127 0 -207 95t-80 247zM111 166q0 -74 41 -118t110 -44q68 0 117 50t94 169q47 124 72.5 241t25.5 198q0 74 -35.5 111.5t-105.5 37.5q-67 0 -114.5 -45 t-90.5 -150q-54 -131 -84 -251t-30 -199zM702 475q37 -14 67.5 -21.5t55.5 -7.5q89 0 148 75.5t59 189.5q0 48 -22 74t-64 26q-73 0 -136 -87t-108 -249z" />
<glyph unicode="&#x178;" horiz-adv-x="883" d="M-47 0l8 29h156l151 542l-61 756h-135v29h481v-29h-164l60 -713l428 592q21 31 32 51t11 29q0 23 -19.5 33t-66.5 10q-7 0 -23.5 -1t-26.5 -1l9 29h288l-6 -29q-73 0 -125 -72q-5 -8 -8 -12l-493 -686l-136 -528h168l-6 -29h-522zM399 1645q0 38 30 68t69 30q40 0 69 -29 t29 -69q0 -44 -28 -72.5t-70 -28.5q-41 0 -70 30t-29 71zM774 1645q0 38 30 68t68 30q40 0 69.5 -29t29.5 -69q0 -44 -28 -72.5t-71 -28.5q-40 0 -69 30t-29 71z" />
<glyph unicode="&#x2c6;" horiz-adv-x="1024" d="M268 950l310 348h104l162 -348h-56l-176 207l-276 -207h-68z" />
<glyph unicode="&#x2dc;" horiz-adv-x="1024" d="M309 1008q16 93 58.5 138.5t113.5 45.5q22 0 40.5 -2.5t35.5 -7.5l129 -37q21 -5 33.5 -6.5t23.5 -1.5q41 0 65.5 20t35.5 64h49q-19 -99 -63 -147t-117 -48q-18 0 -33 2t-29 6l-131 37q-24 6 -40 8t-29 2q-39 0 -62 -18.5t-31 -54.5h-49z" />
<glyph unicode="&#x2000;" horiz-adv-x="965" />
<glyph unicode="&#x2001;" horiz-adv-x="1931" />
<glyph unicode="&#x2002;" horiz-adv-x="965" />
<glyph unicode="&#x2003;" horiz-adv-x="1931" />
<glyph unicode="&#x2004;" horiz-adv-x="643" />
<glyph unicode="&#x2005;" horiz-adv-x="482" />
<glyph unicode="&#x2006;" horiz-adv-x="321" />
<glyph unicode="&#x2007;" horiz-adv-x="321" />
<glyph unicode="&#x2008;" horiz-adv-x="241" />
<glyph unicode="&#x2009;" horiz-adv-x="386" />
<glyph unicode="&#x200a;" horiz-adv-x="107" />
<glyph unicode="&#x2010;" horiz-adv-x="786" d="M72 344l37 131h448l-39 -131h-446z" />
<glyph unicode="&#x2011;" horiz-adv-x="786" d="M72 344l37 131h448l-39 -131h-446z" />
<glyph unicode="&#x2012;" horiz-adv-x="786" d="M72 344l37 131h448l-39 -131h-446z" />
<glyph unicode="&#x2013;" horiz-adv-x="1024" d="M-74 352l31 115h993l-32 -115h-992z" />
<glyph unicode="&#x2014;" horiz-adv-x="2048" d="M-90 352l31 115h2048l-31 -115h-2048z" />
<glyph unicode="&#x2018;" horiz-adv-x="494" d="M205 1022q0 112 87.5 208t244.5 154l12 -28q-128 -52 -207.5 -126.5t-79.5 -135.5q0 -37 59 -40q25 -1 39 -3q52 -9 80.5 -36.5t28.5 -68.5q0 -44 -30 -74t-77 -30q-68 0 -112.5 50.5t-44.5 129.5z" />
<glyph unicode="&#x2019;" horiz-adv-x="494" d="M168 872q127 52 206 125.5t79 135.5q0 37 -60 41q-24 2 -37 4q-53 9 -81.5 35.5t-28.5 66.5q0 44 31 74t77 30q69 0 113.5 -49.5t44.5 -128.5q0 -112 -88.5 -208t-245.5 -154z" />
<glyph unicode="&#x201a;" horiz-adv-x="494" d="M-57 -326q127 52 206.5 126.5t79.5 136.5q0 36 -59 39q-26 2 -38 3q-54 10 -83 37t-29 68q0 44 31.5 74t77.5 30q68 0 113 -50.5t45 -129.5q0 -112 -87.5 -208t-244.5 -154z" />
<glyph unicode="&#x201c;" horiz-adv-x="872" d="M205 1022q0 112 87.5 208t244.5 154l12 -28q-128 -52 -207.5 -126.5t-79.5 -135.5q0 -37 59 -40q25 -1 39 -3q52 -9 80.5 -36.5t28.5 -68.5q0 -44 -30 -74t-77 -30q-68 0 -112.5 50.5t-44.5 129.5zM584 1022q0 112 87.5 208t243.5 154l13 -28q-128 -52 -207.5 -126.5 t-79.5 -135.5q0 -37 59 -40q25 -1 39 -3q54 -10 82.5 -37t28.5 -68q0 -44 -31 -74t-78 -30q-68 0 -112.5 50.5t-44.5 129.5z" />
<glyph unicode="&#x201d;" horiz-adv-x="872" d="M168 872q127 52 206 125.5t79 135.5q0 37 -60 41q-24 2 -37 4q-53 9 -81.5 35.5t-28.5 66.5q0 44 31 74t77 30q69 0 113.5 -49.5t44.5 -128.5q0 -112 -88.5 -208t-245.5 -154zM547 872q127 52 205.5 125.5t78.5 135.5q0 37 -59 41q-24 2 -37 4q-53 9 -81.5 35.5 t-28.5 66.5q0 44 31 74t77 30q69 0 113.5 -49.5t44.5 -128.5q0 -112 -88.5 -208t-245.5 -154z" />
<glyph unicode="&#x201e;" horiz-adv-x="872" d="M-57 -326q127 52 206.5 126.5t79.5 136.5q0 36 -59 39q-26 2 -38 3q-54 10 -83 37t-29 68q0 44 31.5 74t77.5 30q68 0 113 -50.5t45 -129.5q0 -112 -87.5 -208t-244.5 -154zM324 -326q127 52 205.5 126.5t78.5 136.5q0 36 -57 39q-26 2 -38 3q-54 10 -83 37t-29 68 q0 44 31 74t78 30q68 0 113 -50.5t45 -129.5q0 -112 -88.5 -208t-245.5 -154z" />
<glyph unicode="&#x2022;" horiz-adv-x="1208" d="M307 762q0 123 87 209t210 86q122 0 208.5 -86.5t86.5 -208.5t-87.5 -209.5t-209.5 -87.5q-123 0 -209 87t-86 210z" />
<glyph unicode="&#x2026;" horiz-adv-x="2048" d="M137 76q0 38 26.5 64t65.5 26t64.5 -26t25.5 -64q0 -39 -25.5 -64.5t-64.5 -25.5q-38 0 -65 26.5t-27 63.5zM819 76q0 38 26.5 64t65.5 26t64.5 -26t25.5 -64q0 -39 -25.5 -64.5t-64.5 -25.5q-38 0 -65 26.5t-27 63.5zM1503 76q0 38 26.5 64t65.5 26t64.5 -26t25.5 -64 q0 -39 -25.5 -64.5t-64.5 -25.5q-38 0 -65 26.5t-27 63.5z" />
<glyph unicode="&#x202f;" horiz-adv-x="386" />
<glyph unicode="&#x2039;" horiz-adv-x="569" d="M45 412q95 72 181 144t163 142h29q-40 -66 -102.5 -137t-155.5 -155l20 -39q94 -181 123 -263h-31q-42 66 -99.5 143.5t-127.5 164.5z" />
<glyph unicode="&#x203a;" horiz-adv-x="569" d="M-2 104q40 67 102.5 138t155.5 155l-3 5q-106 206 -138 296h28q43 -65 100.5 -143t127.5 -164q-89 -68 -174 -139.5t-168 -147.5h-31z" />
<glyph unicode="&#x205f;" horiz-adv-x="482" />
<glyph unicode="&#x20ac;" d="M-45 535l20 47h101q4 44 12 87t18 83h-116l20 47h109q81 251 240 405t331 154q107 0 196 -61.5t99 -61.5q21 0 33 15t18 48h29l-74 -456h-30q8 41 12 75.5t4 63.5q0 154 -76 250t-194 96q-127 0 -222.5 -125.5t-177.5 -402.5h385l-20 -47h-377q-11 -38 -20.5 -79.5 t-18.5 -90.5h340l-21 -47h-327q-8 -50 -12.5 -95t-4.5 -88q0 -150 69 -245t175 -95q115 0 217.5 86.5t171.5 243.5l31 -16q-79 -171 -189.5 -261t-242.5 -90q-176 0 -282.5 143.5t-106.5 385.5v31h-119z" />
<glyph unicode="&#x2122;" horiz-adv-x="1683" d="M244 1260l12 178h440l11 -178h-25q-8 79 -40.5 115t-96.5 36h-21v-426q0 -23 12 -37t33 -16l31 -2v-27h-248v27l31 2q21 1 33 15.5t12 37.5v426h-20q-64 0 -97 -36t-41 -115h-26zM788 903v27l34 2q21 2 32.5 16t11.5 37v371q0 23 -12.5 37t-34.5 16l-31 2v27h183 l141 -400l148 400h174v-25l-30 -2q-22 -2 -34 -15.5t-12 -37.5v-373q0 -24 12 -37.5t34 -15.5l30 -2v-27h-236v27l31 2q21 2 33 16t12 37v395l-178 -479h-15l-174 479v-395q0 -23 12.5 -37t34.5 -16l31 -2v-27h-197z" />
<glyph unicode="&#xe000;" horiz-adv-x="840" d="M0 0v840h840v-840h-840z" />
</font>
</defs>
</svg>
